<?xml version="1.0" standalone="no"?>
<!DOCTYPE svg PUBLIC "-//W3C//DTD SVG 20010904//EN"
 "http://www.w3.org/TR/2001/REC-SVG-20010904/DTD/svg10.dtd">
<svg version="1.0" xmlns="http://www.w3.org/2000/svg"
 width="137.000000pt" height="137.000000pt" viewBox="0 0 137.000000 137.000000"
 preserveAspectRatio="xMidYMid meet">
<metadata>
Created by potrace 1.14, written by Peter Selinger 2001-2017
</metadata>
<g transform="translate(0.000000,137.000000) scale(0.100000,-0.100000)"
fill="#000000" stroke="none">
<path d="M553 1194 c-128 -26 -230 -107 -288 -228 -41 -87 -53 -144 -53 -251
-1 -137 40 -245 114 -301 32 -25 45 -28 103 -28 125 1 222 72 298 220 66 128
96 239 95 341 -2 98 -40 137 -106 109 -17 -7 -42 -25 -55 -40 l-24 -26 -38 39
c-59 60 -114 61 -159 4 -19 -24 -21 -36 -17 -88 7 -70 29 -126 95 -242 59
-103 80 -115 97 -53 4 16 3 20 -3 12 -7 -10 -13 -7 -25 12 -22 32 -21 34 6 31
35 -4 37 -5 36 -12 -3 -20 2 -31 14 -29 21 3 38 17 31 27 -3 5 -10 7 -15 3 -5
-3 -7 -10 -4 -15 3 -5 -1 -6 -10 -2 -12 4 -13 8 -5 13 9 6 7 11 -6 19 -18 10
-18 11 1 8 11 -2 30 -9 43 -15 12 -7 22 -9 21 -5 -4 23 2 43 11 38 6 -3 7 1 4
10 -5 13 -9 13 -23 3 -14 -11 -14 -11 -4 3 7 9 9 20 5 24 -4 5 -1 5 6 1 6 -4
12 -2 12 3 0 13 27 15 34 2 8 -13 -19 -73 -28 -64 -5 5 -6 -2 -2 -13 8 -25
-19 -58 -36 -48 -7 4 -8 2 -4 -5 4 -6 12 -9 17 -6 32 20 -39 -92 -92 -146 -86
-85 -207 -99 -272 -31 -61 64 -91 231 -64 359 53 246 239 372 487 328 152 -26
249 -140 288 -339 l19 -96 72 -75 c39 -41 72 -83 72 -93 2 -33 -3 -47 -21 -62
-15 -12 -20 -30 -21 -83 -1 -37 -5 -70 -9 -72 -13 -8 -51 27 -70 66 -21 41
-37 49 -46 25 -12 -31 53 -123 97 -138 18 -6 -7 -74 -36 -97 -29 -22 -61 -20
-142 10 -91 32 -106 36 -133 33 -35 -5 -95 -76 -120 -140 -24 -65 -25 -80 -5
-88 15 -5 37 34 51 90 9 36 63 94 88 94 13 0 54 -11 92 -26 38 -14 92 -26 121
-27 45 -1 56 2 81 27 41 39 65 123 76 266 1 8 9 26 18 40 43 65 30 107 -68
211 -35 38 -64 76 -65 86 -5 124 -72 274 -152 346 -87 78 -242 111 -384 81z
m1 -186 c13 -15 15 -23 8 -26 -7 -2 -9 -8 -6 -14 4 -6 10 -5 15 3 9 16 18 9
23 -18 3 -12 -1 -20 -10 -20 -10 0 -11 4 -2 14 8 10 7 13 -8 10 -11 -2 -29 -8
-40 -15 -12 -6 -24 -8 -28 -5 -3 3 -6 1 -6 -6 0 -7 -5 -9 -12 -5 -7 4 -8 3 -4
-4 4 -7 3 -12 -2 -12 -5 0 -12 13 -15 30 -15 74 43 120 87 68z m218 0 c5 -46
3 -128 -3 -128 -4 0 -6 -9 -4 -20 2 -11 0 -20 -4 -20 -5 0 -6 -12 -3 -26 4
-23 3 -25 -14 -15 -11 5 -26 15 -34 22 -13 9 -13 10 1 6 17 -6 39 10 39 27 0
6 -5 5 -12 -2 -7 -7 -17 -12 -22 -12 -6 0 0 7 12 16 27 19 28 34 2 62 -21 22
-47 31 -35 12 4 -6 -1 -7 -11 -3 -11 4 -13 8 -6 11 7 2 12 8 12 13 0 6 -5 7
-11 3 -6 -3 -3 5 6 20 28 42 83 63 87 34z m-217 -78 c-3 -5 -12 -10 -18 -10
-7 0 -6 4 3 10 19 12 23 12 15 0z m-33 -24 c6 4 6 -1 -1 -14 -6 -11 -8 -22 -3
-25 4 -2 2 -2 -5 -1 -7 2 -10 -3 -6 -11 3 -11 10 -12 22 -5 13 6 18 5 18 -5 0
-8 -7 -11 -16 -7 -13 5 -14 3 -4 -10 7 -8 10 -18 6 -21 -3 -4 -1 -7 5 -7 5 0
13 6 15 13 4 9 6 9 6 -1 1 -7 -6 -15 -15 -19 -12 -4 -11 -8 8 -18 16 -8 27 -9
38 -1 12 8 13 8 3 -4 -10 -11 -9 -16 5 -26 14 -12 15 -15 3 -23 -17 -11 -43
-3 -35 10 3 5 -1 9 -9 9 -12 0 -33 41 -24 46 1 1 -6 11 -16 21 -9 11 -14 23
-10 26 3 4 1 7 -6 7 -7 0 -9 5 -6 10 3 6 1 10 -5 10 -6 0 -9 4 -5 9 3 5 0 13
-5 16 -7 5 -5 12 7 20 10 8 20 9 21 4 2 -5 8 -6 14 -3z m207 -26 c0 -10 -3 -8
-9 5 -12 27 -12 43 0 25 5 -8 9 -22 9 -30z m-48 -157 c13 -16 12 -17 -3 -4
-10 7 -18 15 -18 17 0 8 8 3 21 -13z"/>
<path d="M507 993 c-3 -5 6 -9 19 -9 13 -1 21 2 18 7 -6 11 -31 12 -37 2z"/>
<path d="M520 969 c0 -6 -4 -7 -10 -4 -6 3 -7 -1 -4 -10 5 -13 9 -13 23 -3 9
7 17 13 19 14 2 1 -4 4 -13 7 -8 4 -15 2 -15 -4z"/>
<path d="M476 957 c3 -10 9 -15 12 -12 3 3 0 11 -7 18 -10 9 -11 8 -5 -6z"/>
<path d="M735 981 c3 -11 1 -22 -5 -26 -6 -4 -9 -1 -8 7 2 7 -3 13 -9 13 -21
0 -15 -13 20 -49 19 -18 34 -27 34 -20 0 8 -5 14 -11 14 -6 0 -5 4 2 9 11 6
10 10 -4 15 -16 6 -16 8 2 21 13 11 15 15 4 13 -8 -2 -14 3 -12 10 1 6 -3 12
-9 12 -6 0 -8 -8 -4 -19z"/>
<path d="M495 890 c-3 -5 -1 -10 4 -10 6 0 11 5 11 10 0 6 -2 10 -4 10 -3 0
-8 -4 -11 -10z"/>
<path d="M550 765 c0 -10 39 -44 44 -37 2 4 -7 15 -20 25 -13 10 -24 15 -24
12z"/>
<path d="M716 771 c-4 -5 -2 -12 3 -15 5 -4 12 -2 15 3 4 5 2 12 -3 15 -5 4
-12 2 -15 -3z"/>
<path d="M999 728 c-1 -7 0 -27 1 -44 1 -18 -6 -36 -15 -44 -15 -12 -21 -9
-52 23 -19 21 -39 35 -44 32 -18 -12 -9 -37 26 -72 30 -30 40 -34 67 -29 44 9
58 32 55 91 -1 38 -6 51 -19 53 -10 2 -18 -2 -19 -10z"/>
<path d="M595 690 c-3 -5 -1 -10 4 -10 6 0 11 5 11 10 0 6 -2 10 -4 10 -3 0
-8 -4 -11 -10z"/>
</g>
</svg>
