<?xml version="1.0" encoding="UTF-8"?>
<svg id="Layer_8" data-name="Layer 8" xmlns="http://www.w3.org/2000/svg" viewBox="0 0 22 16">
  <defs>
    <style>
      .left-bridge,.right-bridge {
        fill: #000;
        fill-rule: evenodd;
        overflow:visible;
        stroke:#000;
      }
      #Layer_8{
        overflow:visible;
        object-fit:contain;
        stroke-width: .1px;
        opacity:.2;
      }
    </style>
  </defs>
  <path class="left-bridge" d="M11,10h-1v-3.05l.32.03c.22.01.44.02.68.02v-2c-2.01,0-3.29-.66-4.06-1.28-.39-.31-.66-.63-.83-.85-.04-.05-.08-.1-.1-.15V.88c-.06-.5-.49-.88-1-.88-.55,0-1,.45-1,1v1.56l-.12.1-.28.23-.16.13c-.53.41-1.18.83-1.76,1.03-.52.17-.81.74-.63,1.26.17.52.74.81,1.26.63.61-.2,1.19-.53,1.68-.86v4.91H.88c-.5.06-.88.49-.88,1,0,.55.45,1,1,1h3v3.12c.06.5.49.88,1,.88.55,0,1-.45,1-1v-3h5v-2ZM8,10h-2v-4.48l.24.16c.41.27.88.52,1.43.73l.33.12v3.47Z"/>
  <path class="right-bridge" d="M11,12h5v3c0,.55.45,1,1,1,.51,0,.94-.39.99-.88v-.12s0-3,0-3h3c.55,0,1-.45,1-1,0-.51-.39-.94-.88-.99h-.12s-3,0-3,0v-4.91c.5.33,1.08.66,1.68.86.52.17,1.09-.11,1.26-.63.17-.52-.11-1.09-.63-1.26-.59-.2-1.23-.61-1.76-1.03l-.16-.13-.28-.23-.12-.1v-1.56C18,.45,17.55,0,17,0c-.51,0-.94.39-.99.88v.12s0,1.72,0,1.72c-.03.04-.06.09-.1.15-.17.23-.44.54-.83.85-.77.62-2.06,1.28-4.06,1.28v2c.23,0,.46,0,.68-.02l.32-.03v3.05h-1s0,2,0,2ZM14,6.53l.33-.12c.54-.21,1.02-.46,1.43-.73l.24-.16v4.48h-2v-3.47Z"/>
</svg>