<?xml version="1.0" encoding="UTF-8"?>
<svg id="Layer_8" data-name="Layer 8" xmlns="http://www.w3.org/2000/svg" viewBox="0 0 384.65 126.21">
  <defs>
    <style>
      .cls-1 {
        fill: #fbc750;
      }

      .cls-1, .cls-2, .cls-3, .cls-4, .cls-5, .cls-6 {
        stroke-width: 0px;
      }

      .cls-2 {
        fill: #155054;
      }

      .cls-3 {
        fill: #000;
      }

      .cls-4 {
        fill: #469a9d;
      }

      .cls-5 {
        fill: #ec745d;
      }

      .cls-6 {
        fill: #5db84f;
      }
    </style>
  </defs>
  <path class="cls-3" d="M341.71,106.64c0-5.14,1.26-9.67,3.8-13.59l16.36-25.68h-97.7v5.89h-7.62v-5.89h-43.98v58.84h106.23l2.9-11.38-6.6-36.62h7.7l2.99,22.79,5.19-22.79h7.7l-12.24,48h24.96c-1.11-.76-2.17-1.62-3.16-2.61-4.35-4.37-6.53-10.03-6.53-16.96ZM250.62,90.16h-7.61v-2.96c0-2.03-1.12-3.05-3.34-3.05s-3.31,1.02-3.31,3.05v.37c0,2.17,2.37,4.71,7.13,7.61,4.76,2.89,7.13,6.4,7.13,10.55v.52c0,6.3-3.64,9.45-10.93,9.45s-10.95-3.15-10.95-9.45v-2.98h7.62v2.98c0,2.02,1.1,3.04,3.31,3.05h.05c2.19,0,3.29-1.01,3.29-3.05v-.39c0-2-2.38-4.45-7.14-7.36-4.75-2.89-7.13-6.35-7.13-10.38v-.92c0-6.31,3.64-9.47,10.93-9.47,7.3.01,10.95,3.17,10.95,9.47v2.96ZM264.17,114.97h-7.62v-36.76h7.62v36.76ZM292.89,114.97h-7.51l-4.82-10.34-4.84,10.34h-7.52l8.59-18.39-8.59-18.37h7.52l4.84,10.34,4.82-10.34h7.51l-8.59,18.37,8.59,18.39ZM313.16,83.99h-5.44v30.98h-7.61v-30.98h-5.44v-5.78h5.44v-8.21h7.61v8.21h5.44v5.78Z"/>
  <g>
    <path class="cls-3" d="M30.93,11.17H10.21v12.28h20.13v9.77H10.21v19.98H0V1.41h30.93v9.77Z"/>
    <path class="cls-3" d="M69.49,48.58c-3.8,3.77-8.44,5.66-13.91,5.66s-10.1-1.89-13.88-5.66-5.66-8.4-5.66-13.88,1.89-10.1,5.66-13.88c3.77-3.77,8.4-5.66,13.88-5.66s10.11,1.89,13.91,5.66c3.8,3.77,5.7,8.4,5.7,13.88s-1.9,10.1-5.7,13.88ZM48.43,42.03c1.9,1.92,4.28,2.89,7.14,2.89s5.25-.96,7.18-2.89c1.92-1.92,2.89-4.37,2.89-7.33s-.96-5.4-2.89-7.33c-1.92-1.92-4.32-2.89-7.18-2.89s-5.24.96-7.14,2.89c-1.9,1.92-2.85,4.37-2.85,7.33s.95,5.4,2.85,7.33Z"/>
    <path class="cls-3" d="M106.34,16.21h9.55v37h-9.55v-4.14c-2.32,3.45-5.99,5.18-11.03,5.18-4.05,0-7.39-1.36-10.03-4.07-2.64-2.71-3.96-6.46-3.96-11.25v-22.72h9.55v21.53c0,2.47.67,4.35,2,5.66,1.33,1.31,3.11,1.96,5.33,1.96,2.47,0,4.44-.76,5.92-2.29,1.48-1.53,2.22-3.82,2.22-6.88v-19.98Z"/>
    <path class="cls-3" d="M145.19,15.17c4.04,0,7.39,1.36,10.03,4.07,2.64,2.71,3.96,6.46,3.96,11.25v22.72h-9.55v-21.53c0-2.47-.67-4.35-2-5.66-1.33-1.31-3.11-1.96-5.33-1.96-2.47,0-4.44.77-5.92,2.29-1.48,1.53-2.22,3.82-2.22,6.88v19.98h-9.55V16.21h9.55v4.14c2.32-3.45,5.99-5.18,11.03-5.18Z"/>
    <path class="cls-3" d="M195.36,1.41h9.55v51.8h-9.55v-4.37c-2.81,3.6-6.81,5.4-11.99,5.4s-9.24-1.89-12.76-5.66c-3.53-3.77-5.29-8.4-5.29-13.88s1.76-10.1,5.29-13.88c3.53-3.77,7.78-5.66,12.76-5.66s9.18,1.8,11.99,5.4V1.41ZM177.78,42.22c1.95,1.95,4.4,2.92,7.36,2.92s5.4-.97,7.33-2.92c1.92-1.95,2.89-4.45,2.89-7.51s-.96-5.56-2.89-7.51c-1.92-1.95-4.37-2.92-7.33-2.92s-5.42.97-7.36,2.92c-1.95,1.95-2.92,4.45-2.92,7.51s.97,5.56,2.92,7.51Z"/>
    <path class="cls-3" d="M241.76,16.21h9.55v37h-9.55v-4.37c-2.86,3.6-6.88,5.4-12.06,5.4s-9.16-1.89-12.69-5.66c-3.53-3.77-5.29-8.4-5.29-13.88s1.76-10.1,5.29-13.88,7.76-5.66,12.69-5.66c5.18,0,9.2,1.8,12.06,5.4v-4.37ZM224.14,42.22c1.92,1.95,4.37,2.92,7.33,2.92s5.41-.97,7.36-2.92,2.92-4.45,2.92-7.51-.97-5.56-2.92-7.51c-1.95-1.95-4.4-2.92-7.36-2.92s-5.4.97-7.33,2.92c-1.92,1.95-2.89,4.45-2.89,7.51s.96,5.56,2.89,7.51Z"/>
    <path class="cls-3" d="M281.12,25.38h-8.36v15.39c0,1.28.32,2.22.96,2.81.64.59,1.58.92,2.81,1,1.23.07,2.76.06,4.59-.04v8.66c-6.56.74-11.19.12-13.88-1.85-2.69-1.97-4.03-5.5-4.03-10.58v-15.39h-6.44v-9.18h6.44v-7.47l9.55-2.89v10.36h8.36v9.18Z"/>
    <path class="cls-3" d="M292.59,11.77c-1.58,0-2.95-.58-4.11-1.74-1.16-1.16-1.74-2.53-1.74-4.11s.58-2.96,1.74-4.14c1.16-1.18,2.53-1.78,4.11-1.78s3.02.59,4.18,1.78c1.16,1.18,1.74,2.57,1.74,4.14s-.58,2.95-1.74,4.11-2.55,1.74-4.18,1.74ZM287.86,53.21V16.21h9.55v37h-9.55Z"/>
    <path class="cls-3" d="M337.66,48.58c-3.8,3.77-8.44,5.66-13.91,5.66s-10.1-1.89-13.88-5.66c-3.77-3.77-5.66-8.4-5.66-13.88s1.89-10.1,5.66-13.88c3.77-3.77,8.4-5.66,13.88-5.66s10.11,1.89,13.91,5.66,5.7,8.4,5.7,13.88-1.9,10.1-5.7,13.88ZM316.61,42.03c1.9,1.92,4.28,2.89,7.14,2.89s5.25-.96,7.18-2.89c1.92-1.92,2.89-4.37,2.89-7.33s-.96-5.4-2.89-7.33c-1.92-1.92-4.32-2.89-7.18-2.89s-5.24.96-7.14,2.89c-1.9,1.92-2.85,4.37-2.85,7.33s.95,5.4,2.85,7.33Z"/>
    <path class="cls-3" d="M370.66,15.17c4.04,0,7.39,1.36,10.03,4.07,2.64,2.71,3.96,6.46,3.96,11.25v22.72h-9.55v-21.53c0-2.47-.67-4.35-2-5.66-1.33-1.31-3.11-1.96-5.33-1.96-2.47,0-4.44.77-5.92,2.29-1.48,1.53-2.22,3.82-2.22,6.88v19.98h-9.55V16.21h9.55v4.14c2.32-3.45,5.99-5.18,11.03-5.18Z"/>
  </g>
  <path class="cls-1" d="M156.24,67.14h38.95v16.38h-38.95v-16.38Z"/>
  <path class="cls-5" d="M117.29,67.14h38.95v16.38h-38.95v-16.38Z"/>
  <path class="cls-6" d="M78.34,67.14h38.95v16.38h-38.95v-16.38Z"/>
  <path class="cls-4" d="M39.38,67.14h38.95v16.38h-38.95v-16.38Z"/>
  <path class="cls-2" d="M.43,67.14h38.95v16.38H.43v-16.38Z"/>
  <polygon class="cls-3" points="381.34 61.34 377.17 67.37 361.87 67.37 365.92 61.34 381.34 61.34"/>
  <path class="cls-3" d="M375.99,106.64c0,3.34-1.03,6-3.1,7.99-2.07,2-4.65,2.99-7.74,2.99s-5.65-.99-7.69-2.99c-2.04-1.99-3.06-4.65-3.06-7.99s1.02-5.99,3.06-7.95c2.04-1.96,4.6-2.94,7.69-2.94s5.67.99,7.74,2.98c2.07,2,3.1,4.63,3.1,7.91Z"/>
  <path class="cls-3" d="M382.11,123.55c-1.01,1.01-2.09,1.89-3.22,2.66h4.84v-4.52c-.5.64-1.03,1.26-1.62,1.86Z"/>
  <path class="cls-3" d="M383.73,67.44l-6.56-.08-11.38,15.26c6.7.61,12.03,3.22,15.95,7.81.76.88,1.4,1.81,1.99,2.77v-25.76Z"/>
</svg>