<?xml version="1.0" encoding="UTF-8"?>
<svg id="Layer_8" data-name="Layer 8" xmlns="http://www.w3.org/2000/svg" viewBox="0 0 171.16 64.87">
  <defs>
    <style>
      .cls-1 {
        fill: #fbc750;
      }

      .cls-1, .cls-2 {
        stroke-width: 0px;
      }

      .cls-2 {
        fill: #000;
      }
    </style>
  </defs>
  <rect class="cls-1" x="128.68" y="6.03" width="42.48" height="58.84"/>
  <path class="cls-2" d="M129.14,45.3c0-5.14,1.26-9.67,3.8-13.59l16.36-25.68H51.6v5.89h-7.62v-5.89H0v58.84h106.23l2.9-11.38-6.6-36.62h7.7l2.99,22.79,5.19-22.79h7.7l-12.24,48h24.96c-1.11-.76-2.17-1.62-3.16-2.61-4.35-4.37-6.53-10.03-6.53-16.96ZM38.05,28.82h-7.61v-2.96c0-2.03-1.12-3.05-3.34-3.05s-3.31,1.02-3.31,3.05v.37c0,2.17,2.37,4.71,7.13,7.61,4.76,2.89,7.13,6.4,7.13,10.55v.52c0,6.3-3.64,9.45-10.93,9.45s-10.95-3.15-10.95-9.45v-2.98h7.62v2.98c0,2.02,1.1,3.04,3.31,3.05h.05c2.19,0,3.29-1.01,3.29-3.05v-.39c0-2-2.38-4.45-7.14-7.36-4.75-2.89-7.13-6.35-7.13-10.38v-.92c0-6.31,3.64-9.47,10.93-9.47,7.3.01,10.95,3.17,10.95,9.47v2.96ZM51.6,53.63h-7.62V16.87h7.62v36.76ZM80.32,53.63h-7.51l-4.82-10.34-4.84,10.34h-7.52l8.59-18.39-8.59-18.37h7.52l4.84,10.34,4.82-10.34h7.51l-8.59,18.37,8.59,18.39ZM100.59,22.65h-5.44v30.98h-7.61v-30.98h-5.44v-5.78h5.44v-8.21h7.61v8.21h5.44v5.78Z"/>
  <polygon class="cls-2" points="168.77 0 164.6 6.03 149.3 6.03 153.35 0 168.77 0"/>
  <path class="cls-2" d="M163.42,45.3c0,3.34-1.03,6-3.1,7.99-2.07,2-4.65,2.99-7.74,2.99s-5.65-.99-7.69-2.99c-2.04-1.99-3.06-4.65-3.06-7.99s1.02-5.99,3.06-7.95c2.04-1.96,4.6-2.94,7.69-2.94s5.67.99,7.74,2.98c2.07,2,3.1,4.63,3.1,7.91Z"/>
  <path class="cls-2" d="M169.54,62.21c-1.01,1.01-2.09,1.89-3.22,2.66h4.84v-4.52c-.5.64-1.03,1.26-1.62,1.86Z"/>
  <path class="cls-2" d="M171.16,6.11l-6.56-.08-11.38,15.26c6.7.61,12.03,3.22,15.95,7.81.76.88,1.4,1.81,1.99,2.77V6.11Z"/>
</svg>