<?xml version="1.0" encoding="UTF-8"?>
<svg id="Layer_2" data-name="Layer 2" xmlns="http://www.w3.org/2000/svg" viewBox="0 0 422.18 416.39">
  <defs>
    <style>
      .cls-1 {
        stroke-linecap: round;
      }

      .cls-1, .cls-2 {
        fill: none;
      }

      .cls-1, .cls-2, .cls-3, .cls-4 {
        stroke-miterlimit: 10;
      }

      .cls-1, .cls-3, .cls-4 {
        stroke: #d7bbad;
        stroke-width: .84px;
      }

      .cls-2 {
        stroke: #1774b3;
        stroke-width: 8.35px;
      }

      .cls-3 {
        fill: #dbc6ae;
      }

      .cls-4 {
        fill: #dcc6ae;
      }

      .cls-5 {
        fill: #4c310b;
      }

      .cls-5, .cls-6, .cls-7, .cls-8, .cls-9, .cls-10, .cls-11, .cls-12, .cls-13 {
        stroke-width: 0px;
      }

      .cls-6 {
        fill: #342d13;
      }

      .cls-7 {
        fill: #3561a6;
      }

      .cls-8 {
        fill: #0e4f82;
      }

      .cls-9 {
        fill: #1c75bc;
      }

      .cls-10 {
        fill: #231f20;
      }

      .cls-11 {
        fill: #dabfc8;
      }

      .cls-12 {
        fill: #ece5e8;
      }

      .cls-13 {
        fill: #fff;
      }
    </style>
  </defs>
  <g id="Layer_1-2" data-name="Layer 1">
    <g>
      <g>
        <path class="cls-10" d="M170.44,356.2c-31.54,4.2-61.32-.05-86.41-7.6-31.85-9.58-58.82-25.69-63.6-48.42-3.28-15.61,4.06-32.81,6.66-49.34,5.94-37.81-13.01-71.52-23.14-106.63-4.66-16.16-7.26-33.71,4.28-51.07,5.8-8.75,14.98-17.02,25.63-24.46,13.22-9.23,28.84-17.3,45.71-23.63,11.83-4.42,24.22-7.98,36.15-12.26C148.73,21,181.39,5.51,216.41,0c-4.23,1.37-9.83,3.84-8.49,4.76,1.02.7,4.4.56,8.13.16-3.88.85-6.86,1.91-7.48,3.07-.63,1.18,4.08,1.33,7.28.62-12.3,3.48-24.2,8.52-36.49,11.99-1.68.47-3.59,1.09-4.3,2.12-1.7,2.42,4.41,2.64,8.47,1.97,26.17-4.26,86.41,2.67,66.92,36.71-13.92,24.32-48.6,27.33-77.66,25.6-17.44-1.04-32.6-5.46-49.74-7.03-17.13-1.56-38.48.55-52.66,9.64,10.23,2.31,23.12.32,35.2-.93,12.08-1.25,10.71-.9,21.92,2.51-8.01-.64-13.09-.48-13.68.99-.25.62,3.09,2.07,10.94,3.83-6.98-.36-13.96-1.44-15.25-.21-2.1,1.99,5.25,2.33,12.89,4.81-11.99,1.34-45.23-6.06-65.67,3.5-14.87,6.95-22.75,18.14-26.01,28.4-8.69,27.31,8.29,51.19,11.73,77.13,1.81,13.61-.12,27.83-2.51,42.02-3.72,22.08-8.34,45.27,4.99,63.45,18.61,25.43,67.1,34.85,112.2,42.58,4.41.75,10.21,1.25,13.34-1.53l-.02.02Z"/>
        <path class="cls-13" d="M203.24,71.72c-4.08-1.24-6.39-4.02-5.89-7.11s3.79-6.39,8.41-8.41"/>
        <path class="cls-13" d="M209.38,50.57c-.65-2.91,1.48-6.4,5.46-8.91s9.68-3.95,14.54-3.68"/>
        <path class="cls-13" d="M192.42,42.65c3.05,1.99,3.8,5.26,1.9,8.36-1.9,3.1-6.37,5.92-11.44,7.21"/>
      </g>
      <g>
        <g>
          <path class="cls-3" d="M354.08,358.5c13.3,9.63,27.58,17.91,42.55,24.66,7.62,3.44,15.47,6.51,22.52,11,1.5.96,3.16,2.6,2.42,4.22-.44.97-1.56,1.38-2.58,1.67-17.44,4.87-36.35-2.47-54,1.51-6.4,1.44-12.62,4.37-19.18,4.02-1.13-.06-2.31-.25-3.15-1.01-.67-.61-1.01-1.49-1.24-2.36-1.39-5.43.98-11.13.62-16.73-.22-3.44-1.51-6.81-3.65-9.52,0,0-.13.04-.27-.45,2.85-2.59,5.69-5.19,8.54-7.78,2.93-2.68,6-5.54,7.42-9.26v.02Z"/>
          <path class="cls-3" d="M345.99,365.59c13.3,9.63,27.58,17.91,42.55,24.66,7.62,3.44,15.47,6.51,22.52,11,1.5.96,3.16,2.6,2.42,4.22-.44.97-1.56,1.38-2.58,1.67-17.44,4.87-36.35-2.47-54,1.51-6.4,1.44-12.62,4.37-19.18,4.02-1.13-.06-2.31-.25-3.15-1.01-.67-.61-1.01-1.49-1.24-2.36-1.39-5.43.98-11.13.62-16.73-.22-3.44-1.51-6.81-3.65-9.52,0,0-.13.04-.27-.45l8.54-7.78c2.93-2.68,6-5.54,7.42-9.26v.02Z"/>
        </g>
        <path class="cls-8" d="M141.51,385.87c-.64-.97-3.55-2.57-1.1-3.48.76-.29,2.07-1.19,2.27-1.43,2.67-3.48,4.92-6.23,6.75-8.34,2.71-3.14,8.3-8.82,11.23-11.78,1.83-1.85,6.22-6.48,9-9.17,4.02-3.88,6.39-5.95,9.26-8.74,10.08-9.73,22.8-20.69,23.28-20.77.21-.02,10.66-7.54,12.81-9.05,2.67-1.89,6.08-3.84,8.29-5.31,2.86-1.9,6.48-6.39,6.72-6.7.59-.73,1.76-2.53,2.48-3.09,2.42-1.85,5.16-1.83,5.88-4.5.87-3.21.25-2.47.39-2.51s-1.93-5.51,1.37-8.57c.68-.62,2.68-1.77,4.52-1.95,2.01-.21,4.46.13,5.4.29,1.55.25,5.65,1.14,8.32,1.31,16.13,1.05,13.3,1.85,29.83,1.48,1.33-.04,4.26,4.65,5.45,5.22,2.5,1.19,17.86,19.45,23.47,24.95,3.37,3.3,14.91,15.53,25.52,26.41,2.77,2.85,13.11,13.95,14.94,17.02.61,1.02-20.8,20.14-20.8,20.14,0,0-2.11,2.86-20.84-18.5-12.21-13.92-25.36-28.46-43.67-34.47-2.37,6.22-5.31,12.26-8.77,18.03-5.39,9-12.02,17.34-18.97,25.37-9.07,10.48-18.91,20.65-31.13,27.93-12.21,7.28-27.15,11.5-41.47,9.09-12.7-2.13-24.21-9.61-30.38-18.91h-.04Z"/>
        <path class="cls-9" d="M133.92,394.98c-.64-1.05-3.56-2.8-1.11-3.79.76-.32,2.08-1.3,2.27-1.55,2.68-3.79,4.93-6.8,6.77-9.1,2.73-3.42,8.34-9.62,11.27-12.86,1.84-2.02,6.24-7.08,9.03-10.01,4.03-4.23,6.41-6.49,9.29-9.54,10.12-10.63,22.89-22.58,23.37-22.66.21-.04,10.71-8.23,12.86-9.87,2.68-2.06,6.11-4.19,8.31-5.78,2.87-2.08,6.51-6.98,6.76-7.31.59-.79,1.76-2.76,2.5-3.37,2.42-2.01,1.91-1.32,2.64-4.23.87-3.5,2.02-4.28,2.16-4.31s-.45-5.11,2.86-8.44c.68-.68,2.69-1.93,4.53-2.13,2.01-.23,4.48.15,5.43.32,1.56.28,5.67,1.24,8.35,1.43,16.19,1.15,13.35,2.02,29.95,1.61,1.34-.04,4.28,5.08,5.46,5.69,2.51,1.3,17.93,21.22,23.55,27.22,3.38,3.6,14.98,16.95,25.61,28.82,2.79,3.11,13.17,15.22,15,18.57.61,1.11-20.89,21.98-20.89,21.98,0,0-2.12,3.11-20.92-20.19-12.26-15.18-25.46-31.07-43.84-37.61-2.39,6.78-5.33,13.38-8.8,19.68-5.4,9.83-12.07,18.91-19.05,27.69-9.11,11.43-18.99,22.52-31.25,30.47s-27.26,12.54-41.64,9.92c-12.75-2.33-24.29-10.49-30.5-20.63l.02-.04Z"/>
        <path class="cls-2" d="M135.27,390.05c-.64-1.02-3.54-2.68-1.1-3.63.76-.3,2.07-1.24,2.25-1.49,2.67-3.63,4.91-6.51,6.72-8.71,2.7-3.27,8.28-9.21,11.21-12.31,1.83-1.94,6.2-6.77,8.98-9.57,4.01-4.05,6.37-6.22,9.24-9.12,10.06-10.17,22.74-21.62,23.23-21.69.21-.02,10.64-7.88,12.78-9.45,2.67-1.97,6.07-4.01,8.26-5.54,2.86-1.99,6.46-6.68,6.71-7,.59-.75,1.76-2.64,2.48-3.22,2.41-1.93,2.12-1.9,2.84-4.7.86-3.36,1.49-8.38,4.77-11.57.68-.65,2.68-1.84,4.51-2.05,2-.22,4.45.13,5.39.3,1.55.27,5.63,1.19,8.3,1.37,16.09,1.1,13.28,1.94,29.76,1.54,1.33-.04,4.25,4.86,5.43,5.45,2.48,1.24,17.81,20.31,23.41,26.06,3.36,3.45,14.88,16.22,25.46,27.59,2.77,2.98,13.09,14.56,14.91,17.77.61,1.07-20.75,21.03-20.75,21.03,0,0-2.1,2.98-20.79-19.33-12.18-14.54-25.3-29.73-43.57-36.01-2.37,6.49-5.29,12.81-8.75,18.84-5.38,9.4-11.98,18.1-18.94,26.51-9.05,10.94-18.86,21.55-31.05,29.18-12.19,7.61-27.09,12.01-41.38,9.49-12.67-2.23-24.15-10.04-30.31-19.75h0Z"/>
        <path class="cls-12" d="M269.9,185.91c.59-3.19,4.91-.99,8-1.97,4.86-1.53,8,1.77,9.34-.47,2.07-3.45,7.4,7.75,8.57,11.61,7,23.09,14.25,41.21,9.12,71.18-.5,2.93-1.09,5.95-2.73,8.43-1.56,2.37-3.95,4.11-6.48,5.39-6.82,3.45-14.76,3.88-22.4,3.71-9.55-.21-19.07-1.24-28.44-3.05-2.4-.46-4.85-1.3-7.27-.99s-4.86,1.93-5.83,4.17c-1.68,3.95.55,7.34-2.63,10.24-.92.85-1.42,2.35-2.5,2.99-2.39,1.42-3.44,5.08-5.13,7.28-1.91,2.51-4.46,4.45-6.98,6.35-6.66,5.05-13.33,10.09-20,15.15-.98.75-42.96,39.77-59.04,63.14-.88,1.28-2.24,2.22-3.79,2.39-2.3.24-3.23-1.34-3.97-2.85-5.59-11.4-6.13-24.61-5.14-37.26.99-12.65,3.43-25.2,3.39-37.9-.02-8.25-.71-17.6,5-23.55,4.62-4.81,11.92-5.67,17.69-9.01,7.8-4.53,12.1-13.13,16.27-21.13,4.12-7.9,8.59-15.76,14.87-22.09,6.28-6.32,14.61-11.04,23.52-11.28,13.89-.38,25.52,9.62,37.17,17.19,2.98,1.94,34.91,10.4,35.15,5.34.74-15.16-9.07-45.58-5.8-63.03l.04.04Z"/>
        <path class="cls-11" d="M240.22,279.86c-2.42.3-7.38,8.83-10.43,14.03-.63,1.08-6.55,8.34-8.24,10.54-1.91,2.51-4.46,4.45-6.98,6.35-6.66,5.05-13.33,10.09-20,15.15-.98.75-42.96,39.77-59.04,63.14-1.71,2.48,13.21-24.57,17.31-26.75,1.25-.65,14.21-14.77,19.97-24.01,5.34-8.59,35.43-33.61,40.2-43.04,7.81-15.42-5.48-18.76-7.54-20.32,0,0,37.16,4.6,34.74,4.91h.01Z"/>
        <path class="cls-11" d="M274.69,249.89c.8.29,1.43.93,1.85,1.67s.67,1.56.88,2.37c.18.67.33,1.44-.07,2,.13-.1.11-.3.06-.46-.16-.55-.3-1.1-.51-1.62-.56-1.45-1.49-2.77-2.68-3.78.1-.15.23-.27.46-.18Z"/>
        <path class="cls-11" d="M275.04,249.82c.99-.17,2.04-.35,3-.04.29.1.58.24.85.39.67.36,1.31.75,1.85,1.28s.97,1.19,1.11,1.93c-.63-.74-1.28-1.51-2.16-1.95-.57-.29-1.2-.44-1.82-.63-.63-.21-1.25-.46-1.85-.73-.28-.12-.55-.23-1.01-.25h.01Z"/>
        <path class="cls-10" d="M240.88,279.94c-8.82-3.72-15.44-3.42-24.98-4.08-5.43-.38-10.87-.75-16.3-1.13,8.44,2.3,17.3,2.39,26,3.28,6.02.62,8.87.63,15.28,1.91h0Z"/>
        <path class="cls-10" d="M159.56,319.48c-5.37,7.5-13.11,13.28-21.83,16.3-1.41.48-2.85.91-4.12,1.68,1.59,1.03,3.7.62,5.45-.07,3.97-1.54,7.4-4.18,10.77-6.8,2.19-1.71,4.41-3.45,6.06-5.69,1.1-1.51,1.91-3.21,3.67-5.4h0Z"/>
        <path class="cls-10" d="M156.85,330.05c-1.19,2.35-3.05,4.36-5.32,5.73-1.64.98-3.49,1.65-4.97,2.86,3.4-.52,6.55-2.21,9.15-4.47.71-.62,1.41-1.32,1.77-2.19s.29-1.99-.38-2.67c-.52.86-.96,1.77-.24.75h-.01Z"/>
        <g>
          <path class="cls-6" d="M205.24,160.71c-2.88,3.66-8.07,4.35-12.71,4.75-11.61,1.02-23.36,2.05-34.36,5.86-11,3.82-21.37,10.82-26.81,21.13-3.76,7.12-4.94,15.3-7.96,22.78-3.02,7.46-8.84,14.76-16.85,15.62,4.64,0,9.49-.65,13.33-3.27,4.25-2.9,6.7-7.8,8.23-12.72s2.29-10.06,4.16-14.87c4.31-11.13,14.18-19.42,25.07-24.3,10.89-4.89,22.86-6.8,34.69-8.41,5.19-.71,11.28-2.02,13.26-6.59l-.02.02Z"/>
          <path class="cls-6" d="M269.38,183.79c-.59,3.7-4.4,6.23-5.02,9.91-.55,3.3,1.64,6.68.8,9.92-.38,1.47-1.33,2.7-2.27,3.89-1.77,2.27-3.54,4.52-5.29,6.78,6.31-2.35,10.42-9.52,9.27-16.16-.25-1.43-.71-2.84-.64-4.28.05-1.02.38-2.01.69-2.98.69-2.11,1.39-4.23,2.45-7.08h.01Z"/>
          <path class="cls-6" d="M226.46,134.6c-7.94,4.79-13.33,12.82-17.65,21.01-3.07,5.79-6.07,12.16-11.83,15.29-4.34,2.35-9.5,2.42-14.43,2.69-6.69.36-13.34,1.21-19.91,2.52-5.6,1.11-11.38,2.7-15.52,6.63-6.41,6.06-7.17,15.78-8.09,24.54-.91,8.76-3.17,18.66-10.88,22.94-2.98,1.65-6.43,2.22-9.61,3.45-9.91,3.84-16.57,15.5-13.51,25.67,1.9,6.31,6.92,11.2,12.24,15.1,5.16,3.77,10.55,14.58,16.94,14.82,11.64.44,25.8-13.59,31.39-23.81,3.71-6.77,12.13-18.31,14.73-21.12,6.86-7.43,21.82-15.24,30.92-11.97,3.85,1.39,20.89,13.95,26.86,12.03,7.69-2.48,7.22-9.47,10.15-12.1,4.4-3.96,3.95-10.8,4.16-16.71.25-7.33,2.25-14.9,7.21-20.31,4.11-4.48,12.77-8.02,12.53-14.09-.21-5.11-5.23-10.86-9.96-12.81s-8.31-3.05-11.11-7.33c-3.16-4.83-5-9.29-1.43-13.84,2.67-3.38,7.43-6.79,6.05-10.87-1.19-.82-21.28-6.51-29.21-1.72h-.04Z"/>
        </g>
        <path class="cls-5" d="M205.37,182.72c-2.75,4.06-11.93,7.91-16.61,9.39-5.33,1.7-10.94,2.39-16.31,3.97-5.37,1.59-10.7,4.25-13.89,8.87-1.82,2.64-2.82,5.74-4.28,8.6-3.03,5.95-8.11,10.82-14.18,13.59,3.62-1.82,6.93-4.25,9.74-7.18,3.15-3.28,8.93-13.46,12.1-16.72,5.2-5.34,10.8-6.03,15.34-6.58,7.39-.88,14.3-3.76,21-7.03,3.2-1.56,6.4-3.47,8.31-6.47,1.34-2.11,1.95-4.58,2.53-7.02.51-2.11,1.01-4.31.46-6.41-.97,4.34-.4,7.31-4.23,12.95v.02Z"/>
        <path class="cls-5" d="M224.22,199.08c-1.82,2.93-7.89,5.72-10.97,6.8-3.53,1.22-7.23,1.73-10.77,2.87-3.55,1.15-7.06,3.08-9.17,6.41-1.2,1.91-1.87,4.16-2.82,6.23-2,4.3-5.36,7.83-9.37,9.83,2.4-1.31,4.58-3.08,6.43-5.2,2.07-2.37,5.9-9.73,8-12.09,3.43-3.87,7.14-4.36,10.13-4.76,4.88-.64,9.45-2.71,13.87-5.08,2.11-1.13,4.23-2.51,5.49-4.68.88-1.53,1.28-3.32,1.67-5.06.33-1.53.67-3.11.3-4.63-.64,3.14-.27,5.28-2.8,9.37Z"/>
        <path class="cls-5" d="M167.53,236.53c-1.82,2.93-7.89,5.72-10.97,6.8-3.53,1.22-7.23,1.73-10.77,2.87-3.55,1.15-7.06,3.08-9.17,6.41-1.2,1.91-1.87,4.16-2.82,6.23-2,4.3-5.36,7.83-9.37,9.83,2.4-1.31,4.58-3.08,6.43-5.2,2.07-2.37,5.9-9.73,8-12.09,3.43-3.87,7.14-4.36,10.13-4.76,4.88-.64,9.45-2.71,13.87-5.08,2.11-1.13,4.23-2.51,5.49-4.68.88-1.53,1.28-3.32,1.67-5.06.33-1.53.67-3.11.3-4.63-.64,3.14-.27,5.28-2.8,9.37Z"/>
        <g>
          <path class="cls-4" d="M271.12,184.87c-.98-2.57.68-5.52-.84-7.83s-3.79-3.97-6.01-5.6c-3.07-2.24-6.13-4.47-9.2-6.71-2.13-1.55-4.3-3.14-5.92-5.22s-2.67-4.76-2.21-7.37c.84-4.71,6.09-7.62,7.1-12.3.22-1.04.29-2.27,1.15-2.9,1.02-.75,2.45-.17,3.54.45,9.74,5.49,18.11,13.39,24.16,22.78,1.11,1.73,2.18,3.56,2.62,5.59,1.07,4.88-1.56,10.37.75,14.81.41.79.98,1.72.55,2.5-.61,1.07-2.18.56-3.38.28-4.12-.95-10.94,5.13-12.32,1.5v.02Z"/>
          <path class="cls-1" d="M253.85,141.71c0,3.1,5.6,1.65,10.37,6.83"/>
          <path class="cls-1" d="M250.55,146.01c0,3.53,6.37,1.87,11.81,7.74"/>
          <path class="cls-1" d="M247.52,150.57c0,2.5,4.64,1.21,8.6,5.06"/>
        </g>
        <path class="cls-7" d="M268.39,332.87c1.01-4.18.08-8.23-.08-12.48,1.58,3.85,2.47,8.76.08,12.48h0Z"/>
        <path class="cls-7" d="M268.73,332.61c-1.95-5.34-4.5-10.35-6.24-15.75,3.02,4.79,5.63,10.04,6.24,15.75h0Z"/>
        <path class="cls-7" d="M268.57,332.61c-2.29-2.97-4.43-5.79-7.95-7.27,4,.05,6.99,3.66,7.95,7.27h0Z"/>
      </g>
    </g>
  </g>
</svg>