<?xml version="1.0" encoding="UTF-8"?>
<svg id="Layer_2" data-name="Layer 2" xmlns="http://www.w3.org/2000/svg" viewBox="0 0 304.85 437.22">
  <defs>
    <style>
      .cls-1 {
        fill: #706151;
        stroke: #695b4d;
        stroke-width: 1.25px;
      }

      .cls-1, .cls-2 {
        stroke-miterlimit: 10;
      }

      .cls-2 {
        fill: none;
        stroke: #231f20;
        stroke-width: .75px;
      }

      .cls-3 {
        fill: #382b1b;
      }

      .cls-3, .cls-4, .cls-5, .cls-6, .cls-7, .cls-8, .cls-9 {
        stroke-width: 0px;
      }

      .cls-4 {
        fill: #433422;
      }

      .cls-5 {
        fill: #231f20;
      }

      .cls-6 {
        fill: #b0927e;
      }

      .cls-7 {
        fill: #a18674;
      }

      .cls-8 {
        fill: #678c80;
      }

      .cls-9 {
        fill: #69817b;
      }
    </style>
  </defs>
  <g id="Layer_1-2" data-name="Layer 1">
    <g>
      <path class="cls-1" d="M248.55,415.48c5.28.55,17.33-2.87,22.65-2.78,6.21.09,10.79,5.37,15.93,8.86,7.24,4.92,11.26,8.45,16.73,6.13,2.91-1.23-13.06-18.64-19.79-27.98-1.99-2.76-6.85-4.7-10.25-4.54-1.96.1-23.79,4.49-25.61,5.26-7.81,3.31-5.29.4.34,15.06h0Z"/>
      <path class="cls-6" d="M117.49,278.64c-23.61,26.72-58.44,70.98-85.54,94.12-7.35,6.28-14.88,13.42-17.02,22.85-1.37,6-.3,12.52,2.91,17.76,4.45,7.27,12.56,11.69,20.88,13.55,8.32,1.86,16.96,1.45,25.47,1.04,18.43-.89,46.26-3.36,64.67-4.25.94-10.44-1.23-30.2-1.23-30.2,0,0-28-.9-43.78-3.6,11.89-2.73,23.18-8.13,32.77-15.68.88-.69,5.69-3.39,6.27-4.35.87-1.43.54-2.01.61-3.68.41-10.03,1.03-19.27,2.65-29.18,1.72-10.6,14.51-40.73,21.25-49.11-7.16-2.71-23.47-9.12-29.93-9.27h0Z"/>
      <path class="cls-6" d="M140.36,288.74c-6.37,7.24-13.66,26.29-15.69,35.72-2.03,9.43-2.46,19.13-2.88,28.76-.95,21.93-1.89,43.98.87,65.75.4,3.2.92,6.46,2.47,9.28,2.56,4.62,7.65,7.4,12.83,8.4s10.52.46,15.77-.11c11.45-1.24,22.88-2.65,34.31-4.05,11.1-1.35,22.21-2.72,33.31-4.08,5.88-.71,11.78-1.44,17.51-2.94,5.87-1.53,11.58-3.88,17.62-4.35-.34-8.6-1.03-17.18-2.07-25.73-17.35,2.12-35,1.86-52.28-.77-10.84-1.64-22.65-4.06-32.19,1.33,13.42-21.1,25.53-44.24,26.47-69.21.04-1.04,1.3-36.59.77-36.84-11.55-5.37-25.86,14.37-37.42,9.01-7.6-3.54-11.79-8.67-19.39-10.18h0Z"/>
      <path class="cls-1" d="M74.65,104.45c-2.26,14.75-3.14,29.68-4,44.58-.48,8.17-.95,16.33-1.44,24.5-.08,1.28,0,2.85,1.13,3.45,1.93,1.02,3.56-1.94,5.64-2.58,4.26,5.66,7.89,11.82,10.76,18.3-3.32,2.3-5.31,6.03-8.03,9.01-5.08,5.54-13.02,8.32-20.45,7.14-4.94-.79-9.76-3.42-12.27-7.75-2.25-3.88-2.4-8.59-2.26-13.06.93-29.36,12.03-57.32,22.98-84.58,1.53-3.8,3.4-7.98,7.17-9.58,1.12-.48,2.52-.64,3.45.14,1.38,1.15.75,3.36.03,5-.8,1.81-2.4,3.34-2.72,5.44Z"/>
      <path class="cls-1" d="M65.51,95.98c1.66,6.02,3.32,12.09,6,17.74,2.67,5.64,6.42,10.92,11.55,14.5,6.79,4.73,15.79,6.08,23.76,3.7,2.11,4.79,3.37,9.96,3.78,15.35,2.45-1.12,4.94-2.14,7.58-2.68,2.11-.44,4.28-.58,6.38-1.07,5.52-1.29,10.15-4.94,14.56-8.49-5.07-4.38-9.39-9.58-12.77-15.37,1.61-4.4,2.62-9.02,3.01-13.7.24-2.87.24-5.78-.36-8.6-1.17-5.54-4.54-10.36-8.13-14.73-4.24-5.16-9.31-10.18-15.82-11.65-8.32-1.88-16.61,2.45-24.91,4.43-1.98.48-4.04.83-5.83,1.83-1.73.97-3.09,2.47-4.36,3.98-1.76,2.07-3.46,4.23-4.45,6.76-.98,2.52-.71,5.33.01,8.03v-.03Z"/>
      <path class="cls-8" d="M176.61,126.21c-11.93-2.75-25.37-5.13-36.7,2.41-5.64,3.76-2.5,6.47-14.9,12.07-14.05,6.35-15.97,1.27-20.85,3.19-14.8,5.83-26.06,13.07-33.46,27.14,8.19,7.54,14.41,17.2,17.85,27.78,4.93-2.03,9.86-4.06,14.79-6.11-2.97,4.23-2.7,9.98-1.1,14.89s4.36,9.36,6.16,14.2c4.25,11.45,2.8,24.27-.44,36.06-3.07,11.16-6.21,19.59-4.7,21.99,1.03,1.63,8.93,4.15,18.01,7.65,7.93,3.06,15.68,6.59,23.19,10.56,10.35,5.47,20.61,11.9,32.21,13.42,11.6,1.51,25.16-3.74,28.65-14.9,1.71-5.46.78-11.34.03-17.01-2.58-19.47-2.88-39.17-2.17-58.79.63-17.55,2.06-35.31-1.4-52.52-3.46-17.21-10.82-38.75-25.16-42.04h.01Z"/>
      <path class="cls-1" d="M117.87,108.76c-.24-5.16-.23-10.57,2.12-15.16,1.23-2.41,3.93-4.7,6.37-3.57,1.77.83,2.37,3,2.77,4.9,4.65,22.21,8.72,44.55,12.19,66.99.43,2.78.88,5.64,2.33,8.07s4.16,4.29,6.96,3.89c4.16-.61,6.36-5.68,11.01-6.97,2.02,11.23,8.24,21.65,17.37,28.72-5.86,7-13.81,11.85-21.61,16.57-2.08,1.25-24.96,15.29-31.98-2.58-11-27.98-7.16-92.14-7.56-100.85h.03Z"/>
      <path class="cls-3" d="M43.31,83.02c-1.84,1.14-3.44,3.17-3.02,5.31s3.78,3.24,4.82,1.33c-2.21,2.06-.54,6.52,2.46,6.65-.29,1.42-.55,2.97.1,4.26s2.68,1.92,3.56.77c.09,1.74.61,3.64,2.04,4.64s3.9.49,4.26-1.23c.58,1.57,2.48,2.48,4.08,1.97s2.58-2.4,2.12-4c.84.97,2.48,1.09,3.46.26s1.14-2.46.33-3.46c2.56.66,5.39-1.76,5.13-4.39.65.75,1.87.95,2.72.44s1.24-1.68.88-2.61c2.04,1.69,5.77-.3,5.49-2.95,1.28.14,2.63.26,3.81-.25s2.08-1.91,1.59-3.1c.58.88,1.81,1.28,2.78.89s1.62-1.51,1.44-2.55c2.76.09,5.31-2.46,5.22-5.22,1.23.51,2.53,1.05,3.85.83s2.53-1.53,2.13-2.81c1.24.55,2.67.65,3.98.29-.18-.49-.34-.98-.51-1.48-.04,1.51-.04,3.15.92,4.31s3.22,1.23,3.69-.2c-.48,2.36,2.8,4.43,4.73,3-.69.88-.59,2.27.21,3.05s2.2.83,3.05.11c-.31,1.24.21,2.72,1.38,3.25s2.8-.3,2.83-1.58c1.19.85,2.91.89,4.15.1s1.91-2.37,1.63-3.81c1.07.7,2.75.13,3.15-1.1s-.61-2.68-1.89-2.75c1.2-.58,1.89-2.04,1.57-3.34s-1.63-2.26-2.96-2.21c1.58-.78,2.42-2.81,1.83-4.48s-2.52-2.72-4.24-2.32c1.77-.2,2.25-2.95.93-4.15s-3.46-.98-4.99-.06c1.83-1.18,2.46-3.9,1.33-5.77s-3.84-2.56-5.73-1.48c1.76-.97,2.18-3.55,1.13-5.24s-3.21-2.51-5.21-2.36-3.85,1.12-5.47,2.3c-.87-1.58-1.76-3.2-3.1-4.4s-3.24-1.96-4.97-1.48-3.05,2.48-2.38,4.16c-1.71-1.87-3.69-3.81-6.2-4.04s-5.26,2.4-4.13,4.65c-1.67-1.32-3.65-2.36-5.77-2.47s-4.38.83-5.42,2.68-.48,4.57,1.42,5.53c-2.81-1.32-5.72-2.41-8.69-3.26-2.61-.75-5.95-1.08-7.56,1.1-.99,1.35-.9,3.27-.2,4.8s1.91,2.76,3.34,3.73c-1.72-1.77-4.14-2.82-6.61-2.9-.46,0-.98.03-1.32.35-.39.38-.39.99-.35,1.53.05.92.1,1.86.49,2.68s1.17,1.54,2.08,1.56c-1.39-.05-2.68-.73-4.06-.98s-3.09.18-3.55,1.49c-.33.94.14,2.01.88,2.67s1.71,1.02,2.63,1.35c-1.58-.43-3.2-.84-4.82-.64s-3.25,1.2-3.7,2.77c-.54,1.88,1.1,4.04,3.06,4.03-1.84.06-3.69.11-5.53.18-.33,0-.66.03-.94.21-.48.34-.48,1.05-.3,1.61.46,1.43,1.84,2.51,3.34,2.62-.74-.38-1.67-.59-2.37-.15s-.77,1.74-.05,1.71l.03.04Z"/>
      <path class="cls-9" d="M162.22,165.93c-.59-1.24.18-2.71.7-3.84,1.84-3.44,5.02-6.37,8.88-7.26-3.44,2.87-6.45,5.77-8.93,9.41-.31.51-.66,1.04-.66,1.69h.01Z"/>
      <path class="cls-9" d="M169.65,282.92c-1.58.4-3.26.09-4.83-.33-4.72-1.34-8.98-3.93-12.98-6.69-13.33-9.29-24.73-21.49-32.21-35.97-1.45-2.9-2.83-5.85-3.88-8.91,1.37,2.94,2.88,5.78,4.55,8.53,8.13,13.91,19.44,25.68,32.24,35.37,2.55,1.96,5.23,3.73,8.04,5.26,2.78,1.44,5.83,3.05,9.06,2.73h.01Z"/>
      <path class="cls-7" d="M120.95,383.31c-.09-18.33.09-36.81,3.79-54.81-1.54,18.28-1.72,36.58-3.79,54.81h0Z"/>
      <path class="cls-7" d="M124.64,328.61c-4.75,1.24-9.48-5.12-7.2-9.41.29,4.2,3.11,8.19,7.2,9.41h0Z"/>
      <path class="cls-4" d="M109.18,62.01c.98,2.92-3.91,5.12-5.9,2.92,2.5-.44,4.43-.94,5.9-2.92h0Z"/>
      <path class="cls-7" d="M84.86,61.24c.98,2.92-3.91,5.12-5.9,2.92,2.5-.44,4.43-.94,5.9-2.92h0Z"/>
      <path class="cls-4" d="M84.86,61.24c.98,2.92-3.91,5.12-5.9,2.92,2.5-.44,4.43-.94,5.9-2.92h0Z"/>
      <path class="cls-4" d="M66.03,70.72c.98,2.92-3.91,5.12-5.9,2.92,2.5-.44,4.43-.94,5.9-2.92h0Z"/>
      <path class="cls-4" d="M87.21,76.91c.98,2.92-3.91,5.12-5.9,2.92,2.5-.44,4.43-.94,5.9-2.92h0Z"/>
      <path class="cls-4" d="M66.03,89.47c.98,2.92-3.91,5.12-5.9,2.92,2.5-.44,4.43-.94,5.9-2.92h0Z"/>
      <path class="cls-7" d="M34.12,415.84c-.73,4.87-8.42,6.72-11.46,2.95,3.99,1.38,8.76.34,11.46-2.95h0Z"/>
      <path class="cls-7" d="M141.59,429.95c-.73,4.87-8.42,6.72-11.46,2.95,3.99,1.38,8.76.34,11.46-2.95h0Z"/>
      <path class="cls-7" d="M187.02,340.56c-10.6.99-25.93-10.55-22.5-22.13-1.14,10.91,12.72,20.95,22.5,22.13h0Z"/>
      <path class="cls-7" d="M113.87,297.56c-2.26,3.54-13.42,9.55-16.56,5.12,2.51,1.59,5.86-.33,8.39-1.18,2.78-1.12,5.47-2.4,8.17-3.93h0Z"/>
      <path class="cls-9" d="M204.93,276.84c-2.11.59-4.19-1.52-5.66-2.78-4.63-4.47-7.86-10.54-8.59-16.95,2.47,5.88,5.39,11.29,9.48,16.12,1.34,1.39,2.68,3.5,4.78,3.61h-.01Z"/>
      <path class="cls-9" d="M112.38,186.45c.28.49-.09,1.09-.34,1.52-2.12,2.81-5.9,4.35-9.38,3.86,3.1-1.52,5.97-2.6,8.83-4.39.36-.26.79-.5.89-.98h0Z"/>
      <g>
        <path class="cls-5" d="M101.5,90.91c-3.31-1.3-7.04-1.51-10.46-.55-.63.18-1.27.4-1.72.85s-.7,1.19-.4,1.77c4.36.04,8.74-.4,13.02-1.3-.26-.24-.53-.46-.43-.77h-.01Z"/>
        <path class="cls-5" d="M96.35,99.55c-.29-.33-.79-.38-1.19-.23s-.73.45-1.02.77c-.43.45-.82.94-1.05,1.52s-.3,1.23-.06,1.81c.18.44.51.79.9,1.07,1.19.88,2.85,1.07,4.2.48.44-.19.87-.48,1.1-.89.21-.38.26-.82.28-1.24,0-.43-.01-.85-.14-1.27-.44-1.49-2.04-2.4-3.02-1.99h0Z"/>
        <path class="cls-5" d="M80.3,108.26c-.55-.19-1.18-.13-1.68.16-.25.14-.48.34-.68.54-.56.56-1.03,1.25-1.18,2.04s.06,1.67.65,2.18c.61.54,1.51.61,2.31.51,1.13-.15,2.31-.7,2.78-1.74.39-.83.23-1.88-.34-2.6s-1.53-1.1-1.86-1.09h-.01Z"/>
        <path class="cls-5" d="M71.67,105.15c.98-2.37,2.08-4.88,4.24-6.26.6-.39,1.33-.68,2.03-.54s1.32.85,1.14,1.56c-.14.53-.65.87-1.13,1.15-2.25,1.38-4.35,2.99-6.27,4.8-.29-.39-.11-1.02-.03-.71h.01Z"/>
        <path class="cls-5" d="M88.46,108.57c1.13,2.11,2.02,4.33,2.63,6.64.36,1.33.65,2.72,1.43,3.85.2.29.44.55.74.71.73.36,1.73-.09,1.93-.88-.3-.25-.74-.03-1.13,0-.55.05-1.05-.34-1.34-.8s-.38-1.03-.48-1.57c-.23-1.13-.5-2.25-.83-3.34-.26-.9-.59-1.81-1.17-2.55-.68-.85-1.74-1.61-1.82-2.06h.03Z"/>
        <path class="cls-5" d="M95.28,127.05c1.23-1.42,2.7-2.63,4.3-3.61.68-.41,1.53-.78,2.22-.41-1.32.55-2.67,1.14-3.65,2.18-.82.85-1.42,2.01-2.53,2.38-.19.06-.43.09-.58-.05s0-.48.24-.49h0Z"/>
      </g>
      <path class="cls-2" d="M16.53,32.76c-5.79,2.8-11.2,6.38-16.02,10.65,2.21,2.75,6.22,3.56,9.63,2.67s6.27-3.21,8.65-5.81c1.77-1.94,3.37-4.16,3.88-6.75s-.36-5.57-2.62-6.92c-2.21-1.33-5.16-.77-7.29.69s-3.61,3.65-5.04,5.79c7.35,5.93,19.91,3.25,24.18-5.17,1.61-3.17,1.27-8.22-2.22-8.92-1.82-.36-3.59.71-5.08,1.83-1.99,1.49-3.89,3.14-5.64,4.9-2.17,2.18-4.26,5.33-2.96,8.12,1.39,2.99,5.57,3.19,8.78,2.46,5.51-1.24,10.67-3.91,14.89-7.66,1.12-.99,2.18-2.09,2.75-3.47,1.56-3.79-1.68-8.32-5.69-9.14s-8.17,1.23-11.03,4.16c-1.58,1.62-2.95,3.88-2.28,6.05.7,2.26,3.26,3.32,5.58,3.76,6.76,1.25,14.05-.56,19.42-4.87,2.75-2.2,5.14-5.71,3.98-9.02-1.09-3.09-4.97-4.44-8.17-3.76-3.2.69-5.85,2.88-8.25,5.09-2.27,2.08-4.67,4.93-3.81,7.9,1.08,3.71,6.1,4.24,9.91,3.66,11.06-1.69,21.61-6.66,29.98-14.11,2.37-2.12,4.72-5.61,2.86-8.19-.99-1.38-2.82-1.83-4.52-2.01-6.18-.65-12.58,1.17-17.5,4.95-1.33,1.02-2.6,2.26-3.05,3.88-1.09,3.86,3.09,7.33,7.04,8.05,8.38,1.57,16.58-3.56,22.63-9.58,2.61-2.6,4.83-7.39,1.76-9.41-1.05-.69-2.4-.71-3.65-.58-4.25.48-8.29,2.63-11.04,5.91-1.15,1.38-2.13,3.15-1.79,4.92.5,2.61,3.47,3.88,6.11,4.25,8.78,1.25,18.11-3.09,22.8-10.61,1.02-1.64,1.74-4,.34-5.32-.83-.78-2.09-.83-3.24-.78-6.48.3-12.84,2.82-17.79,7.04-2.53,2.16-4.84,5.26-4.23,8.53.83,4.43,6.36,6.18,10.84,5.82,4.79-.4,9.46-2.25,13.22-5.24,2.07-1.66,3.95-3.76,4.54-6.36s-.46-5.67-2.88-6.75c-1.78-.8-3.86-.39-5.73.2-5.82,1.83-11.13,5.31-15.13,9.91-1.82,2.09-3.46,4.83-2.72,7.5.88,3.21,4.69,4.62,8.01,4.8,8.72.49,17.5-4.43,21.64-12.12,1.73-3.21,1.91-8.38-1.62-9.34-1.49-.4-3.05.2-4.45.85-5.82,2.68-11.24,6.22-16.03,10.49-3.15,2.8-6.27,6.82-4.98,10.84.51,1.63,1.72,2.96,3.09,3.99,6.65,5,17.7,1.97,20.85-5.73,1.29-3.16,1.17-7.24-1.35-9.53-1.25-1.14-2.95-1.72-4.62-2.02-7.39-1.34-14.95,1.97-20.78,6.7-3.22,2.61-6.3,6.94-4.31,10.57,2.3,4.21,9.21,2.72,11.97-1.2,2.01-2.85,2.48-7.29-.24-9.47-3.02-2.41-7.43-.49-10.75,1.48-3.84,2.27-7.68,4.55-11.51,6.82-3.02,1.79-6.45,5.49-4.19,8.18,5.33.83,11.04-1.35,14.44-5.54,2.23-2.73,3.36-7,1.08-9.7-2.37-2.8-6.81-2.25-10.26-1.03-8.86,3.12-16.68,9.12-22,16.87-1.05,1.53-2.04,3.46-1.29,5.17.92,2.09,3.75,2.38,6.01,2.12,7.07-.84,13.83-4.14,18.84-9.19,1.45-1.47,2.82-3.2,3.09-5.24.49-3.76-3.15-7.09-6.91-7.54s-7.45,1.2-10.71,3.15c-6.27,3.73-11.83,8.64-16.29,14.4-1.42,1.83-2.76,4.31-1.58,6.31.6,1.02,1.74,1.59,2.86,1.99,8.86,3.12,18.48-2.27,25.25-8.77,3.04-2.91,5.95-7.59,3.45-10.98-1.34-1.82-3.79-2.42-6.06-2.5-10.39-.3-18.9,7.71-26.13,15.18-1.86,1.92-3.86,4.45-2.97,6.97.78,2.2,3.4,3.07,5.72,3.29,10.15.89,20.29-6.92,22.04-16.96.31-1.79.33-3.8-.79-5.23-1.68-2.16-4.99-1.96-7.64-1.23-9.48,2.6-17.71,9.43-22.01,18.26-.89,1.83-1.61,4.04-.63,5.82,1.05,1.89,3.57,2.41,5.73,2.25,6.82-.51,12.94-6.07,14.11-12.82.21-1.22.26-2.5-.18-3.65-1.59-4.1-7.65-3.52-11.54-1.45-5.72,3.05-10.56,7.7-13.83,13.3-1.27,2.16-2.25,5.03-.75,7.02,1.34,1.79,3.99,1.89,6.21,1.56,7.98-1.22,15.3-6.2,19.38-13.16,1.22-2.08,2.17-4.43,2.01-6.82s-1.73-4.83-4.08-5.37c-1.87-.44-3.8.35-5.51,1.24-8.15,4.25-14.83,11.25-18.69,19.59-.59,1.27-1.12,2.63-.93,4.01.54,3.88,5.9,4.75,9.65,3.62,5.46-1.63,10.22-5.41,13.07-10.34.74-1.28,1.37-2.72,1.18-4.18-.28-2.26-2.51-3.9-4.77-4.14s-4.49.65-6.45,1.81c-3.91,2.32-7.12,5.79-9.13,9.87-.43.87-.8,1.81-.66,2.76.23,1.58,1.77,2.62,3.22,3.26,5.67,2.51,12.49,2.23,17.92-.73s9.38-8.54,10.35-14.66c.2-1.25.25-2.65-.48-3.7-1.58-2.3-5.13-1.19-7.59.14-2.83,1.53-5.79,3.17-7.55,5.87s-1.81,6.81.77,8.76c1.08.82,2.45,1.14,3.79,1.32,10.35,1.37,21.08-6.33,23.1-16.57.23-1.12.28-2.45-.58-3.2-.84-.75-2.16-.53-3.22-.15-4.82,1.73-8.57,6.13-9.52,11.15,5.09,1.33,10.67,1.78,15.49-.34s8.53-7.38,7.49-12.54c-.24-1.19-.84-2.47-1.99-2.87-.83-.29-1.73-.05-2.56.23-4.06,1.4-7.65,4.15-10.07,7.7-.46.68-.9,1.47-.78,2.28.19,1.17,1.43,1.82,2.55,2.18,9.67,3.1,21.26-4.24,22.58-14.31-4.65,1.76-8.5,5.54-10.34,10.17,4.13,1.73,9.12,1.22,12.81-1.32,3.69-2.55,5.95-7.04,5.78-11.5-.04-.89-.16-1.83-.69-2.55-1.43-1.97-4.49-1.22-6.72-.26-1.74.74-3.56,1.53-4.79,2.99s-1.67,3.76-.46,5.23c.69.84,1.76,1.25,2.81,1.52,8.42,2.17,18.01-4.11,19.38-12.69.18-1.12.18-2.42-.63-3.21-1.05-1.04-2.8-.66-4.19-.16-5.51,2.02-10.62,5.07-15.04,8.94-.93.82-1.89,1.81-1.92,3.04-.06,2.14,2.5,3.24,4.58,3.74,2.2.53,4.48,1.05,6.67.58s4.3-2.25,4.36-4.5c.04-1.03-.35-2.02-.73-2.99-1.27-3.26-2.55-6.51-3.81-9.77-3.51-.33-6.6,3.34-6.21,6.85.39,3.51,3.64,6.28,7.14,6.74s7.05-1.09,9.62-3.5c2.81-2.63,4.34-7.73,1.25-10.03-2.07-1.54-5.02-.88-7.34.25-3.41,1.67-6.71,5.69-4.69,8.92,1.24,1.98,3.91,2.48,6.25,2.35,8.47-.49,16.07-7.61,17.1-16.04.18-1.48.14-3.11-.82-4.25-1.64-1.96-4.74-1.33-7.17-.53-3.45,1.14-7.64,3.42-7.06,7.01.44,2.71,3.8,4.16,6.42,3.37s4.48-3.15,5.67-5.62c.6-1.27,1.09-2.67.8-4.05-.46-2.3-2.97-3.69-5.32-3.7s-4.54,1.04-6.64,2.06c-2.07,1-4.45,2.46-4.49,4.77-.01.98.41,1.91,1.02,2.68,2.75,3.56,8.58,3.5,12.08.68,3.5-2.81,4.94-7.55,5.03-12.04"/>
    </g>
  </g>
</svg>