<?xml version="1.0" encoding="UTF-8"?>
<svg id="Layer_2" data-name="Layer 2" xmlns="http://www.w3.org/2000/svg" viewBox="0 0 998.51 473.4">
  <defs>
    <style>
      .cls-1 {
        fill: #706151;
        stroke: #695b4d;
        stroke-width: 1.25px;
      }

      .cls-1, .cls-2, .cls-3, .cls-4, .cls-5, .cls-6 {
        stroke-miterlimit: 10;
      }

      .cls-2 {
        stroke-linecap: round;
      }

      .cls-2, .cls-3, .cls-4 {
        fill: none;
      }

      .cls-2, .cls-5, .cls-6 {
        stroke: #d7bbad;
        stroke-width: .84px;
      }

      .cls-3 {
        stroke: #231f20;
        stroke-width: .75px;
      }

      .cls-4 {
        stroke: #1774b3;
        stroke-width: 8.35px;
      }

      .cls-5 {
        fill: #dbc6ae;
      }

      .cls-6 {
        fill: #dcc6ae;
      }

      .cls-7 {
        fill: #f3dceb;
      }

      .cls-7, .cls-8, .cls-9, .cls-10, .cls-11, .cls-12, .cls-13, .cls-14, .cls-15, .cls-16, .cls-17, .cls-18, .cls-19, .cls-20, .cls-21, .cls-22, .cls-23, .cls-24, .cls-25, .cls-26, .cls-27, .cls-28, .cls-29, .cls-30, .cls-31, .cls-32 {
        stroke-width: 0px;
      }

      .cls-8 {
        fill: #4c310b;
      }

      .cls-9 {
        fill: #504436;
      }

      .cls-10 {
        fill: #8a7462;
      }

      .cls-11 {
        fill: #826c58;
      }

      .cls-12 {
        fill: #382b1b;
      }

      .cls-13 {
        fill: #342d13;
      }

      .cls-14 {
        fill: #3561a6;
      }

      .cls-15 {
        fill: #0e4f82;
      }

      .cls-16 {
        fill: #433422;
      }

      .cls-17 {
        fill: #1c75bc;
      }

      .cls-18 {
        fill: #231f20;
      }

      .cls-19 {
        fill: #ddf0ed;
      }

      .cls-20 {
        fill: #ddc29e;
      }

      .cls-21 {
        fill: #dabfc8;
      }

      .cls-22 {
        fill: #b0927e;
      }

      .cls-23 {
        fill: #a8bfd4;
      }

      .cls-24 {
        fill: #a18674;
      }

      .cls-25 {
        fill: #b77b8a;
      }

      .cls-26 {
        fill: #8da4b5;
      }

      .cls-27 {
        fill: #a16876;
      }

      .cls-28 {
        fill: #7f7873;
      }

      .cls-29 {
        fill: #678c80;
      }

      .cls-30 {
        fill: #ece5e8;
      }

      .cls-31 {
        fill: #fff;
      }

      .cls-32 {
        fill: #69817b;
      }
    </style>
  </defs>
  <g id="Layer_1-2" data-name="Layer 1">
    <g>
      <g>
        <path class="cls-18" d="M124.83,312.59c-23.1,3.08-44.91-.04-63.29-5.56-23.33-7.02-43.08-18.81-46.58-35.46-2.4-11.43,2.97-24.03,4.88-36.13,4.35-27.69-9.53-52.38-16.95-78.1-3.42-11.84-5.32-24.69,3.13-37.4,4.25-6.41,10.97-12.47,18.77-17.92,9.68-6.76,21.12-12.67,33.48-17.3,8.66-3.24,17.74-5.85,26.48-8.98,24.17-8.64,48.09-19.98,73.74-24.02-3.1,1-7.2,2.81-6.22,3.49.75.51,3.22.41,5.95.12-2.84.62-5.02,1.4-5.47,2.24-.46.86,2.99.98,5.33.45-9.01,2.55-17.72,6.24-26.73,8.78-1.23.35-2.63.8-3.15,1.55-1.24,1.77,3.23,1.93,6.2,1.45,19.17-3.12,63.29,1.95,49.01,26.89-10.2,17.81-35.59,20.02-56.88,18.75-12.77-.76-23.88-4-36.43-5.15-12.55-1.14-28.18.4-38.56,7.06,7.49,1.69,16.93.23,25.78-.68,8.85-.91,7.84-.66,16.05,1.84-5.87-.47-9.58-.35-10.02.73-.19.45,2.26,1.52,8.01,2.8-5.11-.27-10.22-1.06-11.17-.15-1.54,1.46,3.84,1.7,9.44,3.52-8.78.98-33.12-4.44-48.09,2.56-10.89,5.09-16.66,13.28-19.05,20.8-6.36,20,6.07,37.49,8.59,56.49,1.32,9.96-.09,20.38-1.84,30.77-2.72,16.17-6.1,33.15,3.66,46.47,13.63,18.63,49.14,25.52,82.17,31.18,3.23.55,7.48.91,9.77-1.12l-.02.02Z"/>
        <path class="cls-31" d="M148.85,104.24c-2.99-.91-4.68-2.95-4.31-5.21s2.78-4.68,6.16-6.16"/>
        <path class="cls-31" d="M153.34,88.76c-.48-2.13,1.08-4.69,4-6.52s7.09-2.89,10.65-2.7"/>
        <path class="cls-31" d="M140.92,82.95c2.24,1.46,2.79,3.85,1.39,6.12-1.39,2.27-4.67,4.34-8.38,5.28"/>
      </g>
      <g>
        <g>
          <path class="cls-5" d="M259.32,314.28c9.74,7.05,20.2,13.12,31.16,18.06,5.58,2.52,11.33,4.77,16.5,8.06,1.1.7,2.32,1.91,1.77,3.09-.32.71-1.14,1.01-1.89,1.22-12.77,3.57-26.62-1.81-39.55,1.11-4.69,1.06-9.25,3.2-14.05,2.95-.83-.04-1.69-.19-2.31-.74-.49-.44-.74-1.09-.91-1.73-1.02-3.98.72-8.15.45-12.25-.16-2.52-1.11-4.99-2.67-6.97,0,0-.1.03-.2-.33,2.09-1.9,4.17-3.8,6.26-5.7,2.15-1.96,4.39-4.06,5.43-6.78v.02Z"/>
          <path class="cls-5" d="M253.39,319.47c9.74,7.05,20.2,13.12,31.16,18.06,5.58,2.52,11.33,4.77,16.5,8.06,1.1.7,2.32,1.91,1.77,3.09-.32.71-1.14,1.01-1.89,1.22-12.77,3.57-26.62-1.81-39.55,1.11-4.69,1.06-9.25,3.2-14.05,2.95-.83-.04-1.69-.19-2.31-.74-.49-.44-.74-1.09-.91-1.73-1.02-3.98.72-8.15.45-12.25-.16-2.52-1.11-4.99-2.67-6.97,0,0-.1.03-.2-.33l6.26-5.7c2.15-1.96,4.39-4.06,5.43-6.78v.02Z"/>
        </g>
        <path class="cls-15" d="M103.64,334.32c-.47-.71-2.6-1.88-.81-2.55.56-.21,1.52-.87,1.66-1.05,1.95-2.55,3.6-4.56,4.94-6.1,1.99-2.3,6.08-6.46,8.23-8.62,1.34-1.36,4.55-4.75,6.59-6.72,2.95-2.84,4.68-4.36,6.78-6.4,7.38-7.13,16.7-15.16,17.05-15.21.15-.02,7.81-5.52,9.38-6.63,1.95-1.38,4.45-2.81,6.07-3.89,2.09-1.39,4.75-4.68,4.92-4.91.43-.53,1.29-1.85,1.82-2.26,1.77-1.36,3.78-1.34,4.3-3.29.64-2.35.19-1.81.28-1.84s-1.41-4.04,1-6.27c.5-.45,1.96-1.3,3.31-1.43,1.47-.15,3.27.1,3.96.21,1.14.19,4.14.83,6.1.96,11.81.77,9.74,1.36,21.85,1.08.98-.03,3.12,3.41,3.99,3.82,1.83.87,13.08,14.24,17.19,18.27,2.47,2.41,10.92,11.38,18.69,19.34,2.03,2.09,9.6,10.21,10.94,12.47.44.75-15.24,14.75-15.24,14.75,0,0-1.54,2.09-15.26-13.55-8.94-10.2-18.57-20.84-31.98-25.25-1.74,4.55-3.89,8.98-6.42,13.2-3.95,6.59-8.8,12.7-13.9,18.58-6.65,7.68-13.85,15.12-22.8,20.45s-19.89,8.42-30.37,6.66c-9.3-1.56-17.73-7.04-22.25-13.85h-.03Z"/>
        <path class="cls-17" d="M98.08,340.99c-.47-.77-2.61-2.05-.82-2.78.56-.23,1.53-.95,1.66-1.14,1.96-2.78,3.61-4.98,4.96-6.66,2-2.5,6.1-7.05,8.25-9.41,1.35-1.48,4.57-5.18,6.61-7.33,2.95-3.1,4.69-4.76,6.81-6.98,7.41-7.78,16.76-16.54,17.12-16.59.15-.03,7.84-6.03,9.41-7.23,1.96-1.51,4.47-3.07,6.09-4.23,2.1-1.53,4.77-5.11,4.95-5.35.43-.58,1.29-2.02,1.83-2.47,1.77-1.47,1.4-.97,1.93-3.1.64-2.56,1.48-3.13,1.58-3.16s-.33-3.74,2.09-6.18c.5-.5,1.97-1.41,3.32-1.56,1.47-.17,3.28.11,3.98.23,1.14.2,4.15.91,6.11,1.05,11.85.84,9.78,1.48,21.94,1.18.98-.03,3.13,3.72,4,4.17,1.84.95,13.13,15.54,17.25,19.94,2.48,2.64,10.97,12.41,18.76,21.11,2.04,2.28,9.65,11.15,10.99,13.6.44.82-15.3,16.1-15.3,16.1,0,0-1.55,2.28-15.32-14.78-8.98-11.12-18.64-22.75-32.1-27.54-1.75,4.97-3.9,9.8-6.44,14.41-3.96,7.2-8.84,13.85-13.95,20.28-6.67,8.37-13.9,16.5-22.88,22.32-8.98,5.82-19.97,9.18-30.5,7.27-9.33-1.7-17.79-7.68-22.33-15.11l.02-.03Z"/>
        <path class="cls-4" d="M99.07,337.38c-.47-.75-2.59-1.96-.81-2.66.56-.22,1.52-.91,1.65-1.09,1.95-2.66,3.59-4.77,4.92-6.38,1.98-2.4,6.06-6.74,8.21-9.02,1.34-1.42,4.54-4.96,6.58-7.01,2.94-2.96,4.67-4.55,6.77-6.68,7.36-7.44,16.66-15.83,17.01-15.88.15-.02,7.79-5.77,9.36-6.92,1.95-1.45,4.45-2.94,6.05-4.06,2.09-1.46,4.73-4.89,4.92-5.13.43-.55,1.29-1.93,1.82-2.36,1.77-1.41,1.55-1.39,2.08-3.44.63-2.46,1.09-6.14,3.5-8.47.5-.48,1.96-1.35,3.3-1.5,1.46-.16,3.26.1,3.95.22,1.14.2,4.13.87,6.08,1,11.78.81,9.73,1.42,21.79,1.13.98-.03,3.11,3.56,3.98,3.99,1.82.91,13.04,14.87,17.14,19.09,2.46,2.53,10.9,11.88,18.64,20.2,2.03,2.18,9.58,10.67,10.92,13.02.44.78-15.2,15.4-15.2,15.4,0,0-1.54,2.18-15.23-14.15-8.92-10.65-18.53-21.78-31.91-26.37-1.74,4.76-3.88,9.38-6.41,13.8-3.94,6.89-8.78,13.26-13.87,19.42-6.63,8.01-13.82,15.79-22.74,21.37-8.93,5.57-19.84,8.79-30.3,6.95-9.28-1.63-17.68-7.36-22.2-14.46h0Z"/>
        <path class="cls-30" d="M197.67,187.87c.43-2.33,3.59-.73,5.86-1.45,3.56-1.12,5.86,1.3,6.84-.35,1.52-2.53,5.42,5.68,6.27,8.5,5.13,16.91,10.44,30.18,6.68,52.13-.36,2.15-.8,4.36-2,6.18-1.14,1.74-2.89,3.01-4.75,3.95-5,2.53-10.81,2.84-16.41,2.72-6.99-.15-13.97-.91-20.83-2.24-1.76-.34-3.55-.95-5.32-.73s-3.56,1.41-4.27,3.05c-1.23,2.89.4,5.38-1.93,7.5-.67.62-1.04,1.72-1.83,2.19-1.75,1.04-2.52,3.72-3.75,5.33-1.4,1.84-3.27,3.26-5.11,4.65-4.88,3.7-9.76,7.39-14.65,11.09-.72.55-31.47,29.12-43.24,46.24-.65.94-1.64,1.62-2.78,1.75-1.69.18-2.37-.98-2.91-2.09-4.09-8.35-4.49-18.02-3.76-27.29.73-9.26,2.51-18.46,2.48-27.76-.02-6.04-.52-12.89,3.66-17.25,3.38-3.52,8.73-4.15,12.96-6.6,5.71-3.32,8.86-9.62,11.92-15.48,3.02-5.79,6.29-11.54,10.89-16.18,4.6-4.63,10.7-8.08,17.22-8.26,10.17-.28,18.69,7.05,27.22,12.59,2.18,1.42,25.56,7.61,25.74,3.91.54-11.1-6.65-33.38-4.25-46.16l.03.03Z"/>
        <path class="cls-21" d="M175.93,256.68c-1.77.22-5.4,6.47-7.64,10.28-.46.79-4.8,6.1-6.03,7.72-1.4,1.84-3.27,3.26-5.11,4.65-4.88,3.7-9.76,7.39-14.65,11.09-.72.55-31.47,29.12-43.24,46.24-1.25,1.82,9.67-18,12.68-19.59.91-.48,10.41-10.82,14.62-17.59,3.91-6.29,25.95-24.61,29.44-31.52,5.72-11.3-4.01-13.74-5.52-14.88,0,0,27.21,3.37,25.44,3.59h0Z"/>
        <path class="cls-21" d="M201.17,234.73c.59.21,1.05.68,1.36,1.22s.49,1.14.65,1.74c.13.49.24,1.06-.05,1.46.1-.07.08-.22.04-.34-.12-.4-.22-.81-.37-1.19-.41-1.06-1.09-2.03-1.96-2.77.07-.11.17-.2.34-.13Z"/>
        <path class="cls-21" d="M201.43,234.68c.73-.12,1.49-.26,2.2-.03.21.07.43.18.62.28.49.27.96.55,1.36.94s.71.87.82,1.41c-.46-.54-.94-1.11-1.58-1.43-.42-.21-.88-.32-1.33-.46-.46-.15-.91-.34-1.36-.53-.2-.09-.4-.17-.74-.19h0Z"/>
        <path class="cls-18" d="M176.42,256.74c-6.46-2.72-11.3-2.5-18.3-2.99-3.98-.28-7.96-.55-11.93-.83,6.18,1.69,12.67,1.75,19.04,2.4,4.41.45,6.5.46,11.19,1.4h0Z"/>
        <path class="cls-18" d="M116.86,285.7c-3.93,5.49-9.6,9.73-15.99,11.93-1.03.35-2.09.67-3.02,1.23,1.16.75,2.71.45,3.99-.05,2.91-1.13,5.42-3.06,7.89-4.98,1.61-1.25,3.23-2.53,4.44-4.17.81-1.11,1.4-2.35,2.69-3.96h0Z"/>
        <path class="cls-18" d="M114.87,293.44c-.87,1.72-2.24,3.19-3.9,4.2-1.2.72-2.56,1.21-3.64,2.09,2.49-.38,4.8-1.61,6.7-3.27.52-.45,1.03-.97,1.3-1.61s.21-1.46-.28-1.95c-.38.63-.7,1.3-.18.55h0Z"/>
        <g>
          <path class="cls-13" d="M150.31,169.42c-2.11,2.68-5.91,3.19-9.31,3.48-8.5.75-17.11,1.5-25.17,4.29-8.06,2.8-15.65,7.92-19.64,15.48-2.75,5.22-3.62,11.21-5.83,16.68-2.21,5.47-6.48,10.81-12.34,11.44,3.4,0,6.95-.48,9.76-2.4,3.11-2.12,4.91-5.71,6.03-9.32s1.68-7.36,3.04-10.89c3.16-8.15,10.38-14.22,18.36-17.8,7.98-3.58,16.74-4.98,25.4-6.16,3.8-.52,8.26-1.48,9.71-4.83l-.02.02Z"/>
          <path class="cls-13" d="M197.29,186.32c-.43,2.71-3.22,4.56-3.67,7.26-.4,2.41,1.2,4.89.59,7.27-.28,1.07-.98,1.98-1.66,2.85-1.3,1.66-2.59,3.31-3.88,4.97,4.62-1.72,7.63-6.97,6.79-11.84-.19-1.05-.52-2.08-.47-3.13.04-.75.28-1.47.51-2.18.51-1.54,1.02-3.1,1.79-5.18h0Z"/>
          <path class="cls-13" d="M165.86,150.29c-5.81,3.51-9.76,9.39-12.93,15.39-2.24,4.24-4.45,8.91-8.66,11.2-3.18,1.72-6.96,1.77-10.57,1.97-4.9.27-9.77.89-14.58,1.85-4.1.82-8.33,1.98-11.37,4.85-4.69,4.44-5.25,11.55-5.93,17.97-.67,6.42-2.32,13.67-7.97,16.8-2.18,1.21-4.71,1.62-7.04,2.53-7.26,2.81-12.14,11.35-9.89,18.8,1.39,4.62,5.07,8.2,8.96,11.06,3.78,2.76,7.73,10.67,12.41,10.85,8.53.32,18.89-9.96,22.99-17.44,2.72-4.96,8.88-13.41,10.79-15.47,5.02-5.44,15.98-11.16,22.65-8.77,2.82,1.02,15.3,10.21,19.67,8.81,5.63-1.82,5.29-6.94,7.44-8.86,3.22-2.9,2.89-7.91,3.04-12.24.19-5.37,1.65-10.91,5.28-14.87,3.01-3.28,9.35-5.87,9.18-10.32-.15-3.74-3.83-7.95-7.29-9.38s-6.09-2.24-8.14-5.37c-2.32-3.54-3.66-6.81-1.05-10.13,1.95-2.48,5.44-4.97,4.43-7.96-.87-.6-15.58-4.77-21.39-1.26h-.03Z"/>
        </g>
        <path class="cls-8" d="M150.41,185.54c-2.01,2.97-8.74,5.79-12.17,6.88-3.9,1.24-8.01,1.75-11.94,2.91-3.93,1.16-7.84,3.11-10.17,6.5-1.33,1.93-2.07,4.21-3.13,6.3-2.22,4.36-5.94,7.92-10.38,9.96,2.65-1.33,5.08-3.11,7.13-5.26,2.31-2.4,6.54-9.86,8.86-12.25,3.81-3.91,7.91-4.42,11.23-4.82,5.41-.65,10.47-2.75,15.38-5.15,2.34-1.14,4.69-2.54,6.09-4.74.98-1.54,1.43-3.35,1.85-5.14.37-1.54.74-3.16.34-4.69-.71,3.18-.29,5.35-3.1,9.49v.02Z"/>
        <path class="cls-8" d="M164.21,197.52c-1.33,2.15-5.78,4.19-8.03,4.98-2.58.9-5.3,1.27-7.89,2.1-2.6.84-5.17,2.25-6.72,4.69-.88,1.4-1.37,3.04-2.07,4.56-1.46,3.15-3.92,5.73-6.86,7.2,1.76-.96,3.35-2.25,4.71-3.81,1.52-1.74,4.32-7.13,5.86-8.86,2.51-2.83,5.23-3.19,7.42-3.49,3.58-.47,6.92-1.99,10.16-3.72,1.54-.83,3.1-1.84,4.02-3.43.65-1.12.94-2.43,1.22-3.71.24-1.12.49-2.28.22-3.39-.47,2.3-.2,3.87-2.05,6.86Z"/>
        <path class="cls-8" d="M122.7,224.95c-1.33,2.15-5.78,4.19-8.03,4.98-2.58.9-5.3,1.27-7.89,2.1-2.6.84-5.17,2.25-6.72,4.69-.88,1.4-1.37,3.04-2.07,4.56-1.46,3.15-3.92,5.73-6.86,7.2,1.76-.96,3.35-2.25,4.71-3.81,1.52-1.74,4.32-7.13,5.86-8.86,2.51-2.83,5.23-3.19,7.42-3.49,3.58-.47,6.92-1.99,10.16-3.72,1.54-.83,3.1-1.84,4.02-3.43.65-1.12.94-2.43,1.22-3.71.24-1.12.49-2.28.22-3.39-.47,2.3-.2,3.87-2.05,6.86Z"/>
        <g>
          <path class="cls-6" d="M198.56,187.11c-.72-1.88.5-4.05-.61-5.73s-2.78-2.91-4.4-4.1c-2.24-1.64-4.49-3.27-6.73-4.92-1.56-1.14-3.15-2.3-4.34-3.82s-1.95-3.49-1.61-5.4c.61-3.45,4.46-5.58,5.2-9.01.16-.76.21-1.66.84-2.12.75-.55,1.79-.12,2.59.33,7.13,4.02,13.27,9.81,17.69,16.68.82,1.27,1.6,2.61,1.92,4.09.78,3.58-1.14,7.6.55,10.84.3.58.72,1.26.4,1.83-.44.78-1.6.41-2.48.2-3.02-.69-8.01,3.75-9.02,1.1v.02Z"/>
          <path class="cls-2" d="M185.91,155.5c0,2.27,4.1,1.21,7.6,5"/>
          <path class="cls-2" d="M183.5,158.65c0,2.58,4.67,1.37,8.65,5.67"/>
          <path class="cls-2" d="M181.28,161.99c0,1.83,3.4.89,6.3,3.71"/>
        </g>
        <path class="cls-14" d="M196.56,295.5c.74-3.06.06-6.03-.06-9.14,1.15,2.82,1.81,6.42.06,9.14h0Z"/>
        <path class="cls-14" d="M196.81,295.31c-1.43-3.91-3.29-7.58-4.57-11.54,2.21,3.51,4.13,7.36,4.57,11.54h0Z"/>
        <path class="cls-14" d="M196.69,295.31c-1.68-2.17-3.25-4.24-5.82-5.32,2.93.04,5.12,2.68,5.82,5.32h0Z"/>
      </g>
    </g>
    <g>
      <path class="cls-1" d="M954.37,337.2c4.13.43,13.55-2.25,17.71-2.18,4.85.07,8.43,4.2,12.45,6.92,5.66,3.84,8.81,6.61,13.08,4.8,2.28-.96-10.21-14.57-15.48-21.88-1.56-2.16-5.35-3.68-8.01-3.55-1.53.08-18.6,3.51-20.03,4.11-6.11,2.59-4.14.31.26,11.78h0Z"/>
      <path class="cls-22" d="M851.89,230.21c-18.46,20.89-45.69,55.5-66.88,73.59-5.75,4.91-11.63,10.49-13.31,17.87-1.07,4.69-.24,9.79,2.28,13.89,3.48,5.69,9.82,9.14,16.33,10.59,6.5,1.45,13.26,1.14,19.92.81,14.41-.7,36.17-2.63,50.56-3.32.74-8.16-.96-23.61-.96-23.61,0,0-21.89-.71-34.23-2.81,9.3-2.14,18.12-6.35,25.63-12.26.69-.54,4.45-2.65,4.9-3.4.68-1.12.42-1.57.48-2.87.32-7.85.8-15.06,2.07-22.81,1.34-8.29,11.35-31.84,16.61-38.39-5.6-2.12-18.35-7.13-23.4-7.25h0Z"/>
      <path class="cls-22" d="M869.77,238.11c-4.98,5.66-10.68,20.56-12.27,27.93-1.59,7.37-1.92,14.96-2.26,22.49-.75,17.14-1.48,34.38.68,51.41.31,2.5.72,5.05,1.93,7.26,2,3.61,5.98,5.79,10.03,6.57s8.23.36,12.33-.09c8.95-.97,17.89-2.07,26.82-3.17,8.68-1.06,17.37-2.13,26.05-3.19,4.6-.56,9.21-1.13,13.69-2.29,4.59-1.2,9.05-3.03,13.78-3.4-.26-6.73-.8-13.44-1.62-20.11-13.56,1.66-27.36,1.45-40.88-.6-8.47-1.28-17.71-3.18-25.16,1.04,10.49-16.5,19.96-34.59,20.69-54.11.03-.81,1.02-28.61.6-28.8-9.03-4.2-20.22,11.24-29.25,7.04-5.94-2.77-9.22-6.78-15.16-7.96h0Z"/>
      <path class="cls-1" d="M818.39,94.02c-1.77,11.53-2.45,23.2-3.13,34.85-.37,6.38-.75,12.77-1.13,19.15-.06,1,0,2.23.88,2.7,1.51.79,2.79-1.52,4.41-2.02,3.33,4.42,6.17,9.24,8.41,14.31-2.6,1.79-4.15,4.72-6.28,7.04-3.97,4.33-10.18,6.5-15.99,5.58-3.86-.62-7.63-2.68-9.59-6.06-1.76-3.03-1.87-6.72-1.77-10.21.73-22.96,9.4-44.82,17.97-66.13,1.2-2.97,2.66-6.24,5.61-7.49.87-.37,1.97-.5,2.7.11,1.08.9.59,2.63.02,3.91-.63,1.41-1.87,2.61-2.13,4.26Z"/>
      <path class="cls-1" d="M811.25,87.4c1.29,4.71,2.6,9.45,4.69,13.87s5.02,8.54,9.03,11.34c5.31,3.7,12.35,4.76,18.57,2.89,1.65,3.75,2.64,7.79,2.95,12,1.91-.87,3.86-1.68,5.92-2.1,1.65-.34,3.34-.45,4.99-.83,4.32-1.01,7.93-3.86,11.39-6.64-3.96-3.42-7.35-7.49-9.98-12.01,1.26-3.44,2.05-7.05,2.35-10.71.19-2.25.19-4.52-.28-6.73-.91-4.33-3.55-8.1-6.35-11.51-3.31-4.03-7.28-7.96-12.37-9.11-6.5-1.47-12.98,1.91-19.48,3.46-1.55.37-3.16.65-4.56,1.43-1.35.76-2.41,1.93-3.41,3.11-1.37,1.62-2.71,3.3-3.48,5.29-.76,1.97-.56,4.17,0,6.28v-.02Z"/>
      <path class="cls-29" d="M898.11,111.03c-9.33-2.15-19.84-4.01-28.69,1.88-4.41,2.94-1.95,5.06-11.65,9.43-10.98,4.96-12.48.99-16.3,2.49-11.57,4.56-20.38,10.22-26.16,21.22,6.4,5.89,11.27,13.45,13.96,21.72,3.85-1.59,7.71-3.18,11.56-4.78-2.32,3.3-2.11,7.81-.86,11.64s3.41,7.32,4.82,11.1c3.32,8.95,2.19,18.98-.34,28.19-2.4,8.73-4.85,15.32-3.68,17.19.8,1.27,6.98,3.25,14.08,5.98,6.2,2.39,12.26,5.15,18.13,8.26,8.09,4.28,16.11,9.31,25.18,10.49,9.07,1.18,19.67-2.92,22.4-11.65,1.33-4.27.61-8.87.02-13.3-2.02-15.22-2.26-30.63-1.7-45.96.49-13.72,1.61-27.61-1.1-41.06-2.71-13.46-8.46-30.29-19.67-32.87h0Z"/>
      <path class="cls-1" d="M852.19,97.39c-.19-4.03-.18-8.27,1.66-11.86.96-1.88,3.07-3.68,4.98-2.79,1.38.65,1.85,2.34,2.17,3.83,3.64,17.37,6.82,34.83,9.53,52.38.33,2.18.69,4.41,1.82,6.31s3.26,3.35,5.44,3.04c3.26-.48,4.97-4.44,8.61-5.45,1.58,8.78,6.44,16.93,13.58,22.46-4.58,5.47-10.8,9.27-16.9,12.95-1.63.98-19.52,11.95-25.01-2.02-8.6-21.88-5.6-72.04-5.91-78.85h.02Z"/>
      <path class="cls-12" d="M793.9,77.27c-1.44.89-2.69,2.48-2.36,4.15s2.95,2.53,3.77,1.04c-1.73,1.61-.42,5.1,1.92,5.2-.23,1.11-.43,2.32.08,3.33s2.1,1.5,2.79.6c.07,1.36.48,2.84,1.6,3.63s3.05.38,3.33-.96c.45,1.23,1.94,1.94,3.19,1.54s2.02-1.87,1.66-3.13c.66.76,1.94.85,2.71.21s.89-1.92.25-2.71c2,.52,4.22-1.37,4.01-3.43.51.59,1.46.75,2.13.34s.97-1.31.69-2.04c1.6,1.32,4.51-.24,4.3-2.3,1,.11,2.06.21,2.98-.2s1.63-1.49,1.25-2.42c.45.69,1.41,1,2.18.7s1.27-1.18,1.13-1.99c2.16.07,4.15-1.92,4.08-4.08.96.4,1.98.82,3.01.65s1.98-1.2,1.67-2.2c.97.43,2.09.51,3.11.23-.14-.38-.26-.76-.4-1.16-.03,1.18-.03,2.46.72,3.37s2.52.96,2.88-.16c-.37,1.84,2.19,3.46,3.7,2.34-.54.69-.46,1.78.17,2.38s1.72.65,2.38.09c-.25.97.17,2.13,1.08,2.54s2.19-.24,2.22-1.24c.93.67,2.28.7,3.25.08s1.49-1.85,1.27-2.98c.83.55,2.15.1,2.46-.86s-.48-2.1-1.48-2.15c.94-.45,1.48-1.6,1.23-2.61s-1.27-1.77-2.31-1.73c1.24-.61,1.89-2.2,1.43-3.5s-1.97-2.13-3.31-1.81c1.38-.16,1.76-2.3.73-3.25s-2.71-.76-3.9-.05c1.43-.92,1.92-3.05,1.04-4.51s-3-2-4.48-1.16c1.37-.76,1.71-2.78.88-4.1s-2.51-1.96-4.07-1.84-3.01.87-4.28,1.79c-.68-1.24-1.37-2.5-2.42-3.44s-2.53-1.53-3.88-1.16-2.38,1.94-1.86,3.26c-1.33-1.46-2.88-2.98-4.84-3.16s-4.11,1.87-3.23,3.64c-1.3-1.03-2.85-1.84-4.51-1.93s-3.42.65-4.24,2.1-.37,3.57,1.11,4.32c-2.2-1.03-4.47-1.88-6.8-2.55-2.04-.59-4.65-.84-5.91.86-.77,1.06-.71,2.56-.16,3.76s1.49,2.16,2.61,2.91c-1.34-1.38-3.24-2.21-5.17-2.27-.36,0-.76.02-1.03.27-.3.29-.3.77-.27,1.2.04.72.08,1.45.38,2.1s.91,1.21,1.63,1.22c-1.09-.04-2.1-.57-3.18-.76s-2.41.14-2.78,1.17c-.25.74.11,1.57.69,2.09s1.33.79,2.06,1.06c-1.24-.33-2.5-.66-3.77-.5s-2.54.94-2.89,2.17c-.42,1.47.86,3.16,2.39,3.15-1.44.05-2.88.09-4.32.14-.25,0-.52.02-.74.17-.37.26-.37.82-.24,1.26.36,1.12,1.44,1.96,2.61,2.05-.58-.29-1.3-.46-1.85-.12s-.6,1.36-.04,1.33l.02.03Z"/>
      <path class="cls-32" d="M886.86,142.09c-.46-.97.14-2.12.55-3,1.44-2.69,3.92-4.98,6.94-5.68-2.69,2.25-5.04,4.51-6.98,7.36-.25.4-.52.81-.52,1.32h0Z"/>
      <path class="cls-32" d="M892.67,233.56c-1.24.31-2.55.07-3.78-.25-3.69-1.05-7.02-3.07-10.15-5.23-10.42-7.27-19.34-16.8-25.18-28.13-1.14-2.27-2.22-4.57-3.03-6.96,1.07,2.29,2.26,4.52,3.56,6.67,6.35,10.88,15.2,20.07,25.2,27.66,1.99,1.53,4.09,2.91,6.29,4.11,2.18,1.13,4.56,2.38,7.08,2.14h0Z"/>
      <path class="cls-24" d="M854.6,312.05c-.07-14.33.07-28.78,2.96-42.86-1.21,14.29-1.34,28.6-2.96,42.86h0Z"/>
      <path class="cls-24" d="M857.48,269.28c-3.72.97-7.41-4-5.63-7.36.23,3.29,2.43,6.4,5.63,7.36h0Z"/>
      <path class="cls-16" d="M845.39,60.84c.76,2.28-3.06,4-4.61,2.28,1.95-.34,3.46-.74,4.61-2.28h0Z"/>
      <path class="cls-24" d="M826.38,60.23c.76,2.28-3.06,4-4.61,2.28,1.95-.34,3.46-.74,4.61-2.28h0Z"/>
      <path class="cls-16" d="M826.38,60.23c.76,2.28-3.06,4-4.61,2.28,1.95-.34,3.46-.74,4.61-2.28h0Z"/>
      <path class="cls-16" d="M811.66,67.65c.76,2.28-3.06,4-4.61,2.28,1.95-.34,3.46-.74,4.61-2.28h0Z"/>
      <path class="cls-16" d="M828.22,72.49c.76,2.28-3.06,4-4.61,2.28,1.95-.34,3.46-.74,4.61-2.28h0Z"/>
      <path class="cls-16" d="M811.66,82.31c.76,2.28-3.06,4-4.61,2.28,1.95-.34,3.46-.74,4.61-2.28h0Z"/>
      <path class="cls-24" d="M786.71,337.48c-.57,3.81-6.58,5.26-8.96,2.3,3.12,1.08,6.85.26,8.96-2.3h0Z"/>
      <path class="cls-24" d="M870.73,348.51c-.57,3.81-6.58,5.26-8.96,2.3,3.12,1.08,6.85.26,8.96-2.3h0Z"/>
      <path class="cls-24" d="M906.25,278.62c-8.29.77-20.27-8.25-17.59-17.3-.89,8.53,9.94,16.38,17.59,17.3h0Z"/>
      <path class="cls-24" d="M849.06,245c-1.77,2.77-10.49,7.46-12.95,4,1.96,1.25,4.58-.25,6.56-.92,2.18-.87,4.28-1.87,6.38-3.07h0Z"/>
      <path class="cls-32" d="M920.26,228.8c-1.65.46-3.28-1.19-4.42-2.18-3.62-3.49-6.15-8.24-6.72-13.25,1.93,4.6,4.22,8.83,7.41,12.6,1.05,1.09,2.1,2.74,3.74,2.82h0Z"/>
      <path class="cls-32" d="M847.89,158.13c.22.38-.07.85-.26,1.19-1.66,2.2-4.61,3.4-7.34,3.02,2.42-1.19,4.67-2.03,6.9-3.43.28-.21.62-.39.7-.76h0Z"/>
      <g>
        <path class="cls-18" d="M839.39,83.43c-2.59-1.02-5.5-1.18-8.18-.43-.49.14-.99.31-1.34.67s-.55.93-.31,1.38c3.41.03,6.84-.31,10.18-1.02-.21-.19-.41-.36-.33-.6h0Z"/>
        <path class="cls-18" d="M835.36,90.19c-.23-.25-.62-.29-.93-.18s-.57.35-.79.6c-.33.35-.64.74-.82,1.19s-.24.96-.05,1.41c.14.34.4.62.71.83.93.69,2.23.83,3.29.37.34-.15.68-.37.86-.7.17-.29.21-.64.22-.97,0-.33,0-.67-.11-.99-.34-1.17-1.6-1.87-2.36-1.56h0Z"/>
        <path class="cls-18" d="M822.82,97c-.43-.15-.92-.1-1.31.13-.2.11-.37.26-.53.42-.44.44-.8.98-.92,1.6s.05,1.3.51,1.71c.48.42,1.18.48,1.8.4.88-.12,1.8-.55,2.18-1.36.3-.65.18-1.47-.26-2.03s-1.2-.86-1.45-.85h0Z"/>
        <path class="cls-18" d="M816.07,94.56c.76-1.85,1.63-3.81,3.31-4.89.47-.3,1.04-.53,1.59-.42s1.03.67.89,1.22c-.11.41-.51.68-.88.9-1.76,1.08-3.4,2.33-4.9,3.76-.23-.3-.09-.79-.02-.56h0Z"/>
        <path class="cls-18" d="M829.19,97.24c.88,1.65,1.58,3.38,2.06,5.19.28,1.04.51,2.13,1.12,3.01.16.23.34.43.58.56.57.28,1.35-.07,1.51-.69-.24-.2-.58-.02-.88,0-.43.04-.82-.26-1.05-.63s-.29-.8-.37-1.23c-.18-.88-.39-1.76-.65-2.61-.21-.71-.46-1.41-.91-1.99-.53-.67-1.36-1.26-1.42-1.61h.02Z"/>
        <path class="cls-18" d="M834.53,111.69c.96-1.11,2.11-2.06,3.36-2.82.53-.32,1.2-.61,1.74-.32-1.03.43-2.09.89-2.85,1.71-.64.67-1.11,1.57-1.98,1.86-.15.05-.33.07-.45-.04s0-.37.19-.38h0Z"/>
      </g>
      <path class="cls-3" d="M772.96,37.97c-4.53,2.19-8.76,4.99-12.52,8.33,1.73,2.15,4.86,2.79,7.53,2.09s4.9-2.51,6.77-4.54c1.38-1.52,2.64-3.26,3.03-5.28s-.28-4.35-2.05-5.41c-1.73-1.04-4.03-.6-5.7.54s-2.82,2.85-3.94,4.53c5.75,4.64,15.56,2.54,18.91-4.04,1.26-2.48.99-6.42-1.74-6.97-1.42-.28-2.8.56-3.97,1.43-1.56,1.17-3.04,2.45-4.41,3.83-1.7,1.71-3.33,4.17-2.31,6.35,1.09,2.33,4.35,2.49,6.86,1.92,4.31-.97,8.35-3.06,11.64-5.99.87-.77,1.71-1.64,2.15-2.72,1.22-2.96-1.31-6.5-4.45-7.15s-6.38.96-8.62,3.26c-1.24,1.27-2.3,3.03-1.78,4.73.55,1.77,2.55,2.6,4.36,2.94,5.29.98,10.98-.44,15.18-3.81,2.15-1.72,4.02-4.46,3.11-7.05-.85-2.41-3.88-3.47-6.38-2.94-2.5.54-4.57,2.26-6.45,3.98-1.78,1.63-3.65,3.85-2.98,6.18.84,2.9,4.77,3.31,7.75,2.86,8.65-1.32,16.9-5.21,23.44-11.03,1.85-1.66,3.69-4.38,2.24-6.4-.77-1.08-2.21-1.43-3.53-1.57-4.83-.51-9.84.91-13.68,3.87-1.04.79-2.03,1.77-2.38,3.03-.85,3.02,2.41,5.73,5.5,6.3,6.55,1.23,12.96-2.79,17.69-7.49,2.04-2.03,3.78-5.78,1.37-7.36-.82-.54-1.87-.56-2.85-.45-3.32.37-6.48,2.06-8.63,4.62-.9,1.08-1.67,2.46-1.4,3.84.39,2.04,2.72,3.03,4.78,3.32,6.86.98,14.16-2.41,17.83-8.3.79-1.28,1.36-3.13.26-4.16-.65-.61-1.64-.65-2.53-.61-5.07.24-10.04,2.21-13.91,5.5-1.98,1.69-3.79,4.11-3.3,6.67.65,3.46,4.97,4.83,8.47,4.55,3.75-.31,7.39-1.76,10.34-4.1,1.62-1.29,3.09-2.94,3.55-4.97s-.36-4.43-2.26-5.28c-1.39-.63-3.02-.3-4.48.16-4.55,1.43-8.7,4.15-11.83,7.75-1.42,1.64-2.71,3.78-2.13,5.86.69,2.51,3.67,3.61,6.27,3.76,6.82.38,13.68-3.46,16.92-9.47,1.35-2.51,1.49-6.55-1.27-7.31-1.17-.31-2.38.16-3.48.67-4.55,2.1-8.79,4.86-12.53,8.2-2.46,2.19-4.9,5.33-3.89,8.47.4,1.27,1.34,2.31,2.41,3.12,5.2,3.91,13.84,1.54,16.3-4.48,1.01-2.47.91-5.66-1.06-7.45-.98-.89-2.3-1.34-3.61-1.58-5.78-1.05-11.69,1.54-16.25,5.24-2.52,2.04-4.92,5.42-3.37,8.27,1.79,3.3,7.2,2.13,9.36-.94,1.57-2.23,1.94-5.7-.19-7.4-2.36-1.88-5.81-.38-8.4,1.16-3,1.78-6,3.56-9,5.33-2.36,1.4-5.04,4.3-3.28,6.39,4.17.65,8.63-1.06,11.29-4.33,1.75-2.14,2.63-5.47.84-7.58-1.85-2.19-5.33-1.76-8.02-.8-6.92,2.44-13.04,7.13-17.2,13.19-.82,1.2-1.6,2.71-1.01,4.04.72,1.64,2.93,1.86,4.7,1.66,5.53-.66,10.82-3.24,14.73-7.19,1.14-1.15,2.21-2.5,2.41-4.1.38-2.94-2.46-5.54-5.4-5.89s-5.83.94-8.38,2.46c-4.9,2.91-9.25,6.76-12.74,11.26-1.11,1.43-2.16,3.37-1.24,4.93.47.79,1.36,1.25,2.24,1.56,6.92,2.44,14.45-1.78,19.74-6.85,2.37-2.28,4.65-5.93,2.7-8.58-1.05-1.42-2.96-1.89-4.74-1.95-8.12-.24-14.78,6.03-20.43,11.87-1.45,1.5-3.02,3.48-2.32,5.45.61,1.72,2.66,2.4,4.47,2.57,7.93.7,15.87-5.41,17.23-13.26.25-1.4.25-2.97-.62-4.09-1.31-1.69-3.9-1.53-5.97-.96-7.41,2.03-13.85,7.37-17.21,14.28-.7,1.43-1.26,3.16-.49,4.55.82,1.48,2.79,1.88,4.48,1.76,5.33-.4,10.12-4.75,11.03-10.02.17-.95.21-1.95-.14-2.85-1.25-3.21-5.98-2.76-9.02-1.14-4.47,2.38-8.26,6.02-10.82,10.4-.99,1.69-1.76,3.93-.59,5.49,1.05,1.4,3.12,1.48,4.85,1.22,6.24-.95,11.96-4.84,15.15-10.29.95-1.63,1.7-3.46,1.57-5.33s-1.35-3.78-3.19-4.2c-1.46-.34-2.97.27-4.31.97-6.37,3.32-11.59,8.8-14.61,15.32-.46.99-.87,2.06-.73,3.14.42,3.03,4.61,3.72,7.54,2.83,4.27-1.27,7.99-4.23,10.22-8.08.58-1,1.07-2.13.92-3.27-.22-1.77-1.96-3.05-3.73-3.24s-3.51.51-5.04,1.41c-3.06,1.81-5.57,4.53-7.14,7.72-.33.68-.63,1.41-.52,2.16.18,1.24,1.38,2.05,2.52,2.55,4.43,1.96,9.77,1.75,14.01-.57s7.34-6.68,8.09-11.46c.16-.98.2-2.07-.37-2.89-1.24-1.79-4.01-.93-5.93.11-2.22,1.2-4.53,2.48-5.9,4.59s-1.41,5.33.6,6.85c.84.64,1.91.89,2.96,1.03,8.09,1.07,16.49-4.95,18.06-12.95.18-.87.22-1.91-.45-2.5-.66-.59-1.69-.41-2.52-.12-3.77,1.35-6.7,4.8-7.44,8.72,3.98,1.04,8.35,1.39,12.11-.26s6.67-5.77,5.85-9.81c-.19-.93-.66-1.93-1.56-2.25-.65-.23-1.35-.04-2,.18-3.18,1.1-5.98,3.25-7.87,6.02-.36.53-.71,1.15-.61,1.78.15.91,1.12,1.42,1.99,1.71,7.56,2.42,16.62-3.31,17.65-11.19-3.64,1.37-6.65,4.33-8.08,7.95,3.23,1.35,7.13.95,10.01-1.03,2.88-1.99,4.65-5.5,4.52-8.99-.03-.7-.13-1.43-.54-1.99-1.12-1.54-3.51-.95-5.26-.21-1.36.58-2.79,1.2-3.75,2.33s-1.3,2.94-.36,4.09c.54.66,1.37.98,2.2,1.19,6.58,1.7,14.08-3.22,15.15-9.92.14-.87.14-1.89-.49-2.51-.82-.81-2.19-.52-3.28-.13-4.31,1.58-8.31,3.96-11.76,6.99-.73.64-1.48,1.41-1.5,2.37-.05,1.68,1.95,2.53,3.58,2.92,1.72.41,3.5.82,5.22.45s3.36-1.76,3.41-3.52c.03-.8-.27-1.58-.57-2.33-.99-2.55-1.99-5.09-2.98-7.64-2.75-.25-5.16,2.61-4.85,5.35.3,2.75,2.84,4.91,5.58,5.27s5.51-.85,7.52-2.74c2.2-2.06,3.39-6.04.98-7.85-1.62-1.21-3.92-.69-5.74.2-2.67,1.3-5.25,4.45-3.67,6.97.97,1.55,3.06,1.94,4.88,1.83,6.62-.38,12.56-5.95,13.37-12.54.14-1.16.11-2.43-.64-3.32-1.28-1.53-3.71-1.04-5.61-.41-2.7.89-5.97,2.68-5.52,5.48.34,2.12,2.97,3.26,5.02,2.64s3.5-2.46,4.43-4.39c.47-.99.85-2.09.63-3.17-.36-1.79-2.32-2.88-4.16-2.89s-3.55.81-5.19,1.61c-1.62.78-3.48,1.92-3.51,3.73,0,.76.32,1.49.79,2.1,2.15,2.79,6.71,2.74,9.44.53,2.74-2.2,3.86-5.9,3.93-9.41"/>
    </g>
    <g>
      <path class="cls-20" d="M487.41,440.56c1.08,3.55,2.12,7.69.54,11.23-1.36,3.04-4.17,4.48-6.66,5.99-3.76,2.28-7.27,5.25-10.41,8.78-.97,1.09-1.97,2.49-1.86,4.03.17,2.29,2.51,2.83,4.35,2.83,7.32.01,14.65-.17,22-.55,2.73-.15,5.96-.66,7.48-3.68.97-1.92.89-4.31.55-6.4-.69-4.14-2.28-7.96-2.41-12.24-.18-5.86,2.42-11.92-13.58-9.98h0Z"/>
      <path class="cls-20" d="M538.34,438.96c1.08,3.55,2.12,7.69.54,11.23-1.36,3.04-4.17,4.48-6.66,5.99-3.76,2.28-7.27,5.25-10.41,8.78-.97,1.09-1.97,2.49-1.86,4.03.17,2.29,2.51,2.83,4.35,2.83,7.32.01,14.65-.17,22-.55,2.73-.15,5.96-.66,7.48-3.68.97-1.92.89-4.31.55-6.4-.69-4.14-2.28-7.96-2.41-12.24-.18-5.86,2.42-11.92-13.58-9.98h0Z"/>
      <g>
        <path class="cls-23" d="M490.2,212.26c-12.88,82.74-17.13,170.36-11.16,237.03,10.27-2.22,24.07-2.89,34.55-2.01,4.92-32.69,8.12-97.81,12.87-129.84,4.22,32.76-1.93,91.68-2.22,126.83,9.93.72,20.19-.84,35.32,1.19,7.17-64.67,25.13-165.82,10.34-229.19-20.6-1.48-60.32-1.36-79.68-4.02h-.01Z"/>
        <g>
          <path class="cls-23" d="M526.51,319.62l.36-48.27-.36,48.27Z"/>
          <path class="cls-26" d="M526.51,319.62c-.51-15.6-.48-32.65-.44-48.27h1.59c-.18,15.63-.4,32.67-1.15,48.26h0ZM526.51,319.62c-.51-15.6-.48-32.65-.44-48.27h1.59c-.2,15.63-.42,32.67-1.15,48.26h0Z"/>
        </g>
        <g>
          <path class="cls-23" d="M519.8,271.16s5.42,1.74,7.3,1.78,7.31-1.41,7.31-1.41"/>
          <path class="cls-26" d="M519.8,271.16c2.42.09,4.98.77,7.28.98,2.36-.07,4.9-.65,7.31-.6-2.35,1.24-4.63,2.04-7.37,2.19-2.71-.31-4.95-1.22-7.24-2.57h.01Z"/>
        </g>
        <g>
          <path class="cls-23" d="M491.54,341.6s5.42,1.74,7.3,1.78,7.31-1.41,7.31-1.41"/>
          <path class="cls-26" d="M491.54,341.6c2.42.09,4.98.77,7.28.98,2.36-.07,4.9-.65,7.31-.6-2.35,1.24-4.63,2.04-7.37,2.19-2.71-.31-4.95-1.22-7.24-2.57h.01Z"/>
        </g>
        <g>
          <path class="cls-23" d="M543.28,343.99s5.42,1.74,7.3,1.78,7.31-1.41,7.31-1.41"/>
          <path class="cls-26" d="M543.28,343.99c2.42.09,4.98.77,7.28.98,2.36-.07,4.9-.65,7.31-.6-2.35,1.24-4.63,2.04-7.37,2.19-2.71-.31-4.95-1.22-7.24-2.57h.01Z"/>
        </g>
        <g>
          <path class="cls-23" d="M552.09,236.29s3.26,8.1,5.2,9.99c1.93,1.86,9.95,4.7,9.95,4.7"/>
          <path class="cls-26" d="M552.09,236.29c2.01,3.02,3.44,6.55,5.69,9.34,1.18,1.11,3.05,1.9,4.52,2.73,1.64.84,3.31,1.68,4.95,2.62-3.76-.81-7.54-1.75-10.61-4.24-2.5-3.18-3.6-6.67-4.55-10.45h.01Z"/>
        </g>
        <g>
          <path class="cls-23" d="M491.97,247.66s8.48-2.06,10.63-3.72c2.13-1.64,6.07-9.18,6.07-9.18"/>
          <path class="cls-26" d="M491.97,247.66c3.28-1.54,6.97-2.47,10.05-4.3,1.27-1,2.31-2.74,3.34-4.09,1.07-1.51,2.14-3.04,3.31-4.52-1.33,3.61-2.82,7.22-5.72,9.89-3.5,2.01-7.12,2.6-10.99,3.01h.01Z"/>
        </g>
      </g>
      <g>
        <g>
          <path class="cls-20" d="M491.57,90.99c2.75-2.08,21.26,1.73,22.07-13.47.18-3.44-4.32-3.23-5.88-6.3-1.65-3.24-2.18-5.5-3.13-9.01-1.65-6.06,2.07-11.42,5.63-16.59s8.46-9.23,13.11-13.45c4.65-4.22,9.22-8.78,11.8-14.51,7.08,6.76,14.16,13.52,21.24,20.27.95.91,1.93,1.86,2.39,3.1.38,1.05.34,2.2.29,3.33-.29,7.42-.72,15.24-4.79,21.45-3.22,4.92-8.34,8.21-13.29,11.36-.26,4.38,5.84,7.41,10.22,7.69,0,.02,1.14,6.01,1.05,6.49-.93,5.08-3.99,9.93-8.39,12.94-4.65,3.18-19.17,3.7-24.73,2.75s-24.95-11.2-27.62-16.06h.01Z"/>
          <path class="cls-25" d="M494.85,83.29c-23.63,19.38-39.91,47.5-44.98,77.64,12.65,2.97,25.46,5.18,38.37,6.61,3.45,17.03,1.87,35.04-4.47,51.21-.36.92-.72,1.98-.23,2.84.44.77,1.42,1.04,2.29,1.24,30.9,6.93,62.87,9,94.41,6.07-10.58-21.77-12.9-47.4-6.45-70.72.87-3.15,2.69-6.87,5.96-6.86,2.47,0,4.55,2.31,7.01,2.11,1.09-.09,2.07-.67,3-1.24,7.01-4.22,14.02-8.46,21.03-12.68-9.59-11.14-18.12-23.19-25.43-35.93-3.01-5.25-5.95-10.79-10.75-14.47-6.16-4.74-21.67-6.83-21.9-6.86-.31-.04-3.89-.16-3.93.59-.53,12.17-6.26,19.46-10.6,20.54-3.67.91-15.34.88-18.78-.69-6.32-2.86-8.28-10.22-9.11-19.44-.07-.78-10.88-.54-15.46.04h.01Z"/>
          <path class="cls-27" d="M576.43,132.57c0,8.54-1.05,17.02-3.17,25.27-.07-8.53,1.02-17,3.17-25.27h0Z"/>
          <path class="cls-27" d="M504.94,84.49c1.92,2.61,3.77,5.28,5.64,7.9,2.79,3.87,4.66,8.64,9.5,10.03,3.01.88,6.28.58,9.43.58,4.62.07,9.68.2,13.06-3.4,6.4-7.21,7.57-17.97,4.25-26.9,4.32,8.79,3.42,20.36-3.16,27.94-3.56,3.95-9.24,4.11-14.13,3.92-3.29,0-6.64.22-9.87-.81-3.31-1.04-5.68-3.84-7.26-6.76-2.37-4.25-5.04-8.29-7.47-12.5h0Z"/>
          <path class="cls-27" d="M491.27,142.12c0,8.54-1.05,17.02-3.17,25.27-.07-8.53,1.02-17,3.17-25.27h0Z"/>
          <path class="cls-27" d="M494.97,207.46c.66,2.84.75,6.02,1.38,8.77,1.04,2.66,2.83,5.24,3.92,7.93-2.29-2.2-4.19-4.43-5.45-7.47-.69-3.18-.45-6.12.13-9.23h.01Z"/>
          <path class="cls-7" d="M526.95,191.17c-2.97-.97-6-1.82-8.81-3.27-5.15-2.64-15.18-11.18-19.76-18.2-2.97-4.57-5.14-9.87-4.95-15.08.11-3.22,1.18-6.29,2.94-8.83,3.21-4.63,8.81-7.35,14.64-7.11,2.08.09,10.98.58,19.29,7.76,4.2,3.64,8.14,7.6,11.75,11.84,3.93,4.6,7.61,9.88,8.28,15.71.31,2.75-3.46,17.64-14.58,18.8-1.32.13-6.24-.8-8.8-1.63h0Z"/>
          <path class="cls-20" d="M589.99,152.07c2.62,3.62,5.83,4.86,5.13,9.87-.49,3.5-3.71,5.89-6.72,7.75-4.54,2.82-9.23,5.41-14.03,7.75-2.2,1.08-4.51,2.12-6.95,2.18-2.77.07-5.41-1.1-7.82-2.46-3.4-1.92-6.56-4.26-9.39-6.97-3.51-3.34-7.32-7.57-12.16-7.06-4.25.44-7.41,5.37-6.02,9.41.64,1.87,2.01,3.38,3.34,4.84,6.92,7.53,14.75,15.54,24.9,16.69,3.98.45,8.01-.22,11.92-1.05,15.51-3.27,30.62-9,43.7-17.92.95-.65,1.91-1.33,2.57-2.29.77-1.11,1.04-2.5,1.22-3.84,1.35-10.09-4.17-18.85-10.68-26.69-.59-.71-.95-1.14-.95-1.14,0,0-2.52,1.57-3.16,1.91,0,0-9.39,5.58-14.95,9.02h.04Z"/>
          <path class="cls-10" d="M574.83,89.22c2.91-7.44,1.75-15.88-.76-23.46-2.51-7.58-6.32-14.69-8.79-22.28-1.66-5.09-2.71-10.37-4.37-15.46-1.64-5.03-3.86-9.87-6.61-14.38-2.78-4.55-6.24-8.91-10.98-11.4s-10.94-2.68-15.13.62c-9.68-5.85-20.09-2-29.14,4.79-8.47,6.35-13.15,15.67-15.62,25.98-1.31,5.47.55,15.54,1.46,21.09,1.53,9.41,3.05,11.62,1.97,21.09-.58,5.13-2.45,11.91-1.59,16.34,3.42-.04,5.3-4.04,7.66-6.5,1.48-1.55,5.63-2.68,5.63-2.68,0,0,.36-.24.54-.33.13-.07.31-.23.45-.32,2.6-1.44,13.31-.93,13.31-.93,0,0,1.82-1.37.49-5.51-.64-1.97-6.46-3.84-5.74-5.01,6.71-10.8,10.15-21.09,16.89-31.6,2.4-3.75,4.92-7.46,8.03-10.65,1.7-1.75,3.57-3.35,5.58-4.75,1,3.8,2.71,5.5,4.44,7.96,1.22,1.74,5.51,7.35,7.2,9.84,1.33,1.97,5.02,4.92,4.3,10.44-.8,6.11-5.25,11.43-5.34,17.59-.02,1.47-3.24,4.26-4.75,5.59-2.18,1.95-3.05,1.93-3.05,1.93,0,0-.2,2.13,1.58,3.86,2.67,2.6,6.26,3.39,6.26,3.39,0,0,.05-1.74.09-1.74.23-.07.32-.07.48-.04l4.39,1.24"/>
          <path class="cls-18" d="M532.16,61.54c1.8-.39,5.72-.13,7.42.58.53.22,1.11.67.97,1.22-.1.38-.51.58-.89.67-.76.2-1.57.18-2.35.15-2.31-.11-5.17.37-7.42-.17-.28-.06-.78-.32-.73-.6.02-.18.23-.58.39-.69,1.14-.76,1.47-.92,2.62-1.18h0Z"/>
          <path class="cls-11" d="M538.1,23.85c-4.28,3.67-8.17,6.89-11.25,12.1-.65,1.09-.75,2.41-1.25,3.57-.66,1.57-1.66,2.96-2.64,4.36-5.06,7.26-9.59,15.14-11.13,23.85-.42,2.37-.61,4.81-1.27,7.14s-1.84,4.6-3.81,6.01c1.53-2.19,1.98-4.96,2.02-7.63s-.32-5.34-.21-8.01c.29-7.93,4.46-15.14,8.66-21.89,2.69-4.32,5.46-8.64,9.01-12.3,3.21-3.31,7.5-6.59,11.87-7.17v-.02Z"/>
          <path class="cls-11" d="M525.5,4.78c-6.24-.58-17.14,5.64-22.73,10.28-5.59,4.64-10.34,11.87-11.27,19.09-.7,5.39.62,10.81,1.64,16.15,1.52,7.93,2.4,15.96,3.22,24.01,2.25-3.18,1.51-7.52.66-11.32-.72-3.26-1.43-6.52-2.15-9.78-.98-4.42-1.96-8.94-1.57-13.44.27-3.13,1.2-6.17,2.34-9.1,1-2.55,5.39-9.45,7.26-11.46,1.75-1.89,16.75-14.38,22.6-14.4v-.02Z"/>
          <path class="cls-11" d="M529.22,11.56c-2.17-.71-4.58-.4-6.68.48s-3.94,2.29-5.63,3.83c-1.96,1.78-3.78,3.76-4.96,6.12-1.62,3.23-1.96,6.98-3.43,10.28-1.35,3.05-3.65,5.66-6.5,7.37,4.79-2.6,8.41-6.99,10.94-11.81,1.86-3.56,3.22-7.44,5.81-10.5,2.5-2.96,6.08-4.97,10.45-5.75h-.01Z"/>
          <path class="cls-19" d="M500.82,84.25c-1.81-2.66-3.75-5.26-5.09-8.19-2.45-5.35-4.81-18.35-3.65-26.65.75-5.41,2.71-10.85,6.57-14.7,2.39-2.39,5.47-4.04,8.75-4.84,5.99-1.46,12.63.09,17.37,4.03,1.69,1.41,8.83,7.54,10.7,18.39.94,5.48,1.43,11.05,1.46,16.62.02,6.06-.62,12.46-4.22,17.33-1.7,2.3-15.47,11.23-25.63,4.93-1.21-.75-4.69-4.64-6.24-6.93h-.01Z"/>
          <path class="cls-20" d="M452.64,196.18c-.71-24.04,7.32-47.43,16.23-69.75,3.44-8.63,7.06-17.25,12.05-25.08,4.98-7.85,11.42-14.94,19.51-19.51,3.54-2.01,8.13-3.45,11.51-1.18,2.69,1.82,3.57,5.45,3.31,8.69-.54,6.48-4.68,12.06-9.16,16.76-4.48,4.7-9.55,9.01-12.74,14.65-2.63,4.64-3.86,9.92-4.95,15.13-3.53,16.8-6.07,33.85-11.36,50.18-1.31,4.04-2.83,8.1-5.55,11.36-2.72,3.26-6.84,5.62-11.07,5.19s-7.72-4.25-7.79-6.44Z"/>
        </g>
        <path class="cls-18" d="M543.45,44.31c-.38-.02-1.33.07-1.65.29-.36.26-.62.37-.86.73-.45.73-.09,2.04.61,2.56.48.36,1.1.44,1.69.4.72-.05,1.46-.27,1.97-.78.21-.21.38-.47.44-.76s0-.61-.06-.91c-.09-.37-.21-.73-.47-1-.33-.36-1.24-.51-1.68-.54h0Z"/>
        <path class="cls-9" d="M548.32,41.79c-.29-.36-.71-.66-1.2-.88-.5-.22-1.05-.33-1.62-.42-2.08-.33-4.24-.28-6.34-.54-.36-.04-.8-.17-.78-.43,0-.15.15-.27.32-.33s.37-.07.56-.07c.69-.02,1.37-.04,2.06-.04.64,0,1.29,0,1.91.07.72.1,1.4.32,2.04.56,1.11.42,2.22.97,3.05,2.07Z"/>
      </g>
      <path class="cls-11" d="M538.12,23.94c.75,3.8,3.06,7.19,5.39,10.28,2.5,3.32,4.98,6.62,7.48,9.94,1.11,1.48,2.26,3.05,2.56,4.88.47,2.95-1.38,5.68-2.62,8.4-1.26,2.79-2.72,7.44-2.72,10.52,0,1.58-.21,2.4.48,3.82,1.43,2.95,6.13,4.16,6.26,7.44.27-2.86-3.17-5.25-4.06-7.98-.92-2.8-.81-4.05-.02-6.89s3.5-7.52,3.98-10.43c.87-5.37-.64-11.08-4.05-15.31-2.6-3.22-6.18-5.57-8.56-8.96-.59-.83-1.1-1.74-1.82-2.45-.53-.51-1.08-1.09-1.47-1.7-.36-.58-.54-.91-.8-1.54h-.01Z"/>
      <path class="cls-11" d="M530.42,7.06c.72-2.13,3.11-3.34,5.36-3.39s4.41.81,6.49,1.68c2.74,1.14,5.51,2.3,7.87,4.1,6.4,4.86,8.77,13.32,10.11,21.25,1.13,6.6,1.82,13.26,2.12,19.94.34,8.19.11,16.66,3.24,24.24,1.18,2.83,2.8,5.5,3.43,8.5.45,2.18.37,4.42.27,6.65,1.11-2.89-.28-6.16-2.15-8.62s-4.28-4.57-5.66-7.35c-1.04-2.12-1.41-4.49-1.66-6.84-.6-5.63-.62-11.32-.06-16.96.6-5.91.64-11.04-.01-16.94-.82-7.33-3.91-16.27-9.73-20.8s-13.43-9.5-19.62-5.46h.01Z"/>
      <g>
        <path class="cls-28" d="M492.18,57.2c2.53-2.31,5.73-3.92,9.11-4.57.49-.1,1.02-.16,1.46.05s.75.81.47,1.22c-.38.37-.95-.15-1.46-.28-.44-.12-.91.07-1.32.24-1.95.84-3.91,1.69-5.85,2.55-.84.37-1.74.75-2.39.78h-.01Z"/>
        <path class="cls-28" d="M508.56,52.42c-.39-.6-.18-1.46.29-2s1.16-.84,1.82-1.14c.81-.36,1.62-.71,2.42-1.07,2.53-1.11,5.14-2.25,7.9-2.44.07.22-.2.39-.42.48-2.49.97-4.97,1.92-7.44,2.89-1.04.4-2.17.88-2.68,1.87-.13.27-.22.56-.42.78-.43.49-1.19.45-1.48.6h0Z"/>
        <path class="cls-28" d="M515.78,55.12c-.28-.32-.65-.65-1.08-.61-.37.04-.66.33-.77.69s-.06.72.04,1.08.26.69.37,1.03c.1.32.16.66.34.94s.54.49.86.39c.37-.12.49-.56.53-.94.07-.81.33-1.85-.29-2.57h.01Z"/>
        <path class="cls-28" d="M501.28,57.55l-.66-.36c-.38.59-.36,1.35-.22,2.04.13.75.36,1.47.67,2.15.04.09.09.18.16.24.18.15.48.04.6-.17s.12-.45.12-.69c-.02-.75-.12-1.49-.29-2.23-.06-.29-.15-.59-.33-.82s-.5-.39-.05-.21v.02Z"/>
        <path class="cls-28" d="M507.03,62.76c.72,2.26,1.58,4.49,2.57,6.65.62,1.38,1.33,2.84,1.08,4.33-.12.71-.45,1.41-.36,2.12.11.76.76,1.41,1.52,1.51.26.04.53,0,.73-.16s.28-.48.12-.67c-.23-.29-.72-.13-1.08-.26-.4-.15-.58-.66-.51-1.09s.28-.82.39-1.24c.26-.93,0-1.92-.31-2.84-.94-2.79-2.35-5.44-4.16-8.35h0Z"/>
      </g>
      <g>
        <path class="cls-28" d="M520.2,145.38c-3.2.15-6.22,1.2-8.63,3-.34.26-.7.56-.8.99s.18,1.02.65,1.1c.49-.01.43-.72.62-1.14.16-.37.56-.55.94-.71,1.75-.73,3.5-1.46,5.25-2.19.76-.32,1.54-.65,1.96-1.07h0Z"/>
        <path class="cls-28" d="M506.82,153.37c-.66-.21-1.46.15-1.9.66s-.62,1.16-.78,1.79c-.21.76-.4,1.53-.61,2.29-.64,2.39-1.27,4.84-.97,7.22.23.01.36-.24.39-.45.49-2.31.99-4.63,1.48-6.93.21-.97.48-2.03,1.36-2.67.23-.17.51-.31.7-.53.39-.47.23-1.1.32-1.38h.01Z"/>
        <path class="cls-28" d="M509.97,162.28c-.22-.34-.4-.76-.24-1.09.13-.28.51-.42.87-.39s.7.21.99.42c.29.21.56.45.84.66.27.2.56.37.77.61s.29.61.1.83c-.22.26-.67.21-1.04.1-.78-.22-1.84-.38-2.31-1.15h.02Z"/>
        <path class="cls-28" d="M516.7,151.34c-.05-.22-.09-.44-.13-.66.67-.1,1.37.2,1.98.54.65.37,1.26.81,1.81,1.31.07.06.15.13.18.22.07.2-.11.4-.34.43s-.45-.06-.67-.15c-.69-.28-1.36-.62-2-1.02-.24-.16-.5-.32-.66-.55-.16-.23-.21-.54-.17-.11h0Z"/>
        <path class="cls-28" d="M519.8,157.85c1.9,1.38,3.71,2.86,5.44,4.43,1.1.99,2.25,2.08,3.73,2.41.7.16,1.44.12,2.08.47.67.36,1.08,1.11.94,1.76-.05.22-.16.43-.37.54s-.54.06-.67-.13c-.21-.29.1-.62.09-.97,0-.38-.44-.7-.86-.8s-.86-.06-1.29-.12c-.95-.12-1.8-.69-2.56-1.26-2.33-1.75-4.36-3.83-6.54-6.33h0Z"/>
      </g>
      <path class="cls-11" d="M539.2,17.39c.42-1.75,1.76-2.75,3.05-2.79s2.51.67,3.68,1.37c1.55.93,3.13,1.9,4.48,3.37,3.64,4,4.98,10.97,5.74,17.49.64,5.42,1.04,10.91,1.2,16.42.2,6.75.06,13.71,1.85,19.94.66,2.33,1.59,4.53,1.95,6.99.26,1.79.21,3.64.15,5.47.64-2.37-.16-5.07-1.22-7.09s-2.44-3.76-3.21-6.04c-.59-1.74-.8-3.7-.94-5.63-.34-4.63-.36-9.32-.04-13.94.34-4.86.37-9.08,0-13.94-.47-6.04-2.23-13.39-5.53-17.13s-7.64-7.82-11.15-4.49h0Z"/>
    </g>
  </g>
</svg>