<?xml version="1.0" encoding="UTF-8"?>
<svg id="Layer_2" data-name="Layer 2" xmlns="http://www.w3.org/2000/svg" viewBox="0 0 170.02 473.4">
  <defs>
    <style>
      .cls-1 {
        fill: #f3dceb;
      }

      .cls-1, .cls-2, .cls-3, .cls-4, .cls-5, .cls-6, .cls-7, .cls-8, .cls-9, .cls-10, .cls-11, .cls-12 {
        stroke-width: 0px;
      }

      .cls-2 {
        fill: #504436;
      }

      .cls-3 {
        fill: #8a7462;
      }

      .cls-4 {
        fill: #826c58;
      }

      .cls-5 {
        fill: #231f20;
      }

      .cls-6 {
        fill: #ddf0ed;
      }

      .cls-7 {
        fill: #ddc29e;
      }

      .cls-8 {
        fill: #a8bfd4;
      }

      .cls-9 {
        fill: #b77b8a;
      }

      .cls-10 {
        fill: #8da4b5;
      }

      .cls-11 {
        fill: #a16876;
      }

      .cls-12 {
        fill: #7f7873;
      }
    </style>
  </defs>
  <g id="Layer_1-2" data-name="Layer 1">
    <g>
      <path class="cls-7" d="M37.53,440.56c1.08,3.55,2.12,7.69.54,11.23-1.36,3.04-4.17,4.48-6.66,5.99-3.76,2.28-7.27,5.25-10.41,8.78-.97,1.09-1.97,2.49-1.86,4.03.17,2.29,2.51,2.83,4.35,2.83,7.32.01,14.65-.17,22-.55,2.73-.15,5.96-.66,7.48-3.68.97-1.92.89-4.31.55-6.4-.69-4.14-2.28-7.96-2.41-12.24-.18-5.86,2.42-11.92-13.58-9.98h0Z"/>
      <path class="cls-7" d="M88.47,438.96c1.08,3.55,2.12,7.69.54,11.23-1.36,3.04-4.17,4.48-6.66,5.99-3.76,2.28-7.27,5.25-10.41,8.78-.97,1.09-1.97,2.49-1.86,4.03.17,2.29,2.51,2.83,4.35,2.83,7.32.01,14.65-.17,22-.55,2.73-.15,5.96-.66,7.48-3.68.97-1.92.89-4.31.55-6.4-.69-4.14-2.28-7.96-2.41-12.24-.18-5.86,2.42-11.92-13.58-9.98h0Z"/>
      <g>
        <path class="cls-8" d="M40.33,212.26c-12.88,82.74-17.13,170.36-11.16,237.03,10.27-2.22,24.07-2.89,34.55-2.01,4.92-32.69,8.12-97.81,12.87-129.84,4.22,32.76-1.93,91.68-2.22,126.83,9.93.72,20.19-.84,35.32,1.19,7.17-64.67,25.13-165.82,10.34-229.19-20.6-1.48-60.32-1.36-79.68-4.02h-.01Z"/>
        <g>
          <path class="cls-8" d="M76.63,319.62l.36-48.27-.36,48.27Z"/>
          <path class="cls-10" d="M76.63,319.62c-.51-15.6-.48-32.65-.44-48.27h1.59c-.18,15.63-.4,32.67-1.15,48.26h0ZM76.63,319.62c-.51-15.6-.48-32.65-.44-48.27h1.59c-.2,15.63-.42,32.67-1.15,48.26h0Z"/>
        </g>
        <g>
          <path class="cls-8" d="M69.93,271.16s5.42,1.74,7.3,1.78,7.31-1.41,7.31-1.41"/>
          <path class="cls-10" d="M69.93,271.16c2.42.09,4.98.77,7.28.98,2.36-.07,4.9-.65,7.31-.6-2.35,1.24-4.63,2.04-7.37,2.19-2.71-.31-4.95-1.22-7.24-2.57h.01Z"/>
        </g>
        <g>
          <path class="cls-8" d="M41.67,341.6s5.42,1.74,7.3,1.78,7.31-1.41,7.31-1.41"/>
          <path class="cls-10" d="M41.67,341.6c2.42.09,4.98.77,7.28.98,2.36-.07,4.9-.65,7.31-.6-2.35,1.24-4.63,2.04-7.37,2.19-2.71-.31-4.95-1.22-7.24-2.57h.01Z"/>
        </g>
        <g>
          <path class="cls-8" d="M93.41,343.99s5.42,1.74,7.3,1.78,7.31-1.41,7.31-1.41"/>
          <path class="cls-10" d="M93.41,343.99c2.42.09,4.98.77,7.28.98,2.36-.07,4.9-.65,7.31-.6-2.35,1.24-4.63,2.04-7.37,2.19-2.71-.31-4.95-1.22-7.24-2.57h.01Z"/>
        </g>
        <g>
          <path class="cls-8" d="M102.22,236.29s3.26,8.1,5.2,9.99c1.93,1.86,9.95,4.7,9.95,4.7"/>
          <path class="cls-10" d="M102.22,236.29c2.01,3.02,3.44,6.55,5.69,9.34,1.18,1.11,3.05,1.9,4.52,2.73,1.64.84,3.31,1.68,4.95,2.62-3.76-.81-7.54-1.75-10.61-4.24-2.5-3.18-3.6-6.67-4.55-10.45h.01Z"/>
        </g>
        <g>
          <path class="cls-8" d="M42.1,247.66s8.48-2.06,10.63-3.72c2.13-1.64,6.07-9.18,6.07-9.18"/>
          <path class="cls-10" d="M42.1,247.66c3.28-1.54,6.97-2.47,10.05-4.3,1.27-1,2.31-2.74,3.34-4.09,1.07-1.51,2.14-3.04,3.31-4.52-1.33,3.61-2.82,7.22-5.72,9.89-3.5,2.01-7.12,2.6-10.99,3.01h.01Z"/>
        </g>
      </g>
      <g>
        <g>
          <path class="cls-7" d="M41.7,90.99c2.75-2.08,21.26,1.73,22.07-13.47.18-3.44-4.32-3.23-5.88-6.3-1.65-3.24-2.18-5.5-3.13-9.01-1.65-6.06,2.07-11.42,5.63-16.59s8.46-9.23,13.11-13.45c4.65-4.22,9.22-8.78,11.8-14.51,7.08,6.76,14.16,13.52,21.24,20.27.95.91,1.93,1.86,2.39,3.1.38,1.05.34,2.2.29,3.33-.29,7.42-.72,15.24-4.79,21.45-3.22,4.92-8.34,8.21-13.29,11.36-.26,4.38,5.84,7.41,10.22,7.69,0,.02,1.14,6.01,1.05,6.49-.93,5.08-3.99,9.93-8.39,12.94-4.65,3.18-19.17,3.7-24.73,2.75s-24.95-11.2-27.62-16.06h.01Z"/>
          <path class="cls-9" d="M44.98,83.29C21.35,102.67,5.07,130.79,0,160.92c12.65,2.97,25.46,5.18,38.37,6.61,3.45,17.03,1.87,35.04-4.47,51.21-.36.92-.72,1.98-.23,2.84.44.77,1.42,1.04,2.29,1.24,30.9,6.93,62.87,9,94.41,6.07-10.58-21.77-12.9-47.4-6.45-70.72.87-3.15,2.69-6.87,5.96-6.86,2.47,0,4.55,2.31,7.01,2.11,1.09-.09,2.07-.67,3-1.24,7.01-4.22,14.02-8.46,21.03-12.68-9.59-11.14-18.12-23.19-25.43-35.93-3.01-5.25-5.95-10.79-10.75-14.47-6.16-4.74-21.67-6.83-21.9-6.86-.31-.04-3.89-.16-3.93.59-.53,12.17-6.26,19.46-10.6,20.54-3.67.91-15.34.88-18.78-.69-6.32-2.86-8.28-10.22-9.11-19.44-.07-.78-10.88-.54-15.46.04h.01Z"/>
          <path class="cls-11" d="M126.56,132.57c0,8.54-1.05,17.02-3.17,25.27-.07-8.53,1.02-17,3.17-25.27h0Z"/>
          <path class="cls-11" d="M55.06,84.49c1.92,2.61,3.77,5.28,5.64,7.9,2.79,3.87,4.66,8.64,9.5,10.03,3.01.88,6.28.58,9.43.58,4.62.07,9.68.2,13.06-3.4,6.4-7.21,7.57-17.97,4.25-26.9,4.32,8.79,3.42,20.36-3.16,27.94-3.56,3.95-9.24,4.11-14.13,3.92-3.29,0-6.64.22-9.87-.81-3.31-1.04-5.68-3.84-7.26-6.76-2.37-4.25-5.04-8.29-7.47-12.5h0Z"/>
          <path class="cls-11" d="M41.4,142.12c0,8.54-1.05,17.02-3.17,25.27-.07-8.53,1.02-17,3.17-25.27h0Z"/>
          <path class="cls-11" d="M45.1,207.46c.66,2.84.75,6.02,1.38,8.77,1.04,2.66,2.83,5.24,3.92,7.93-2.29-2.2-4.19-4.43-5.45-7.47-.69-3.18-.45-6.12.13-9.23h.01Z"/>
          <path class="cls-1" d="M77.08,191.17c-2.97-.97-6-1.82-8.81-3.27-5.15-2.64-15.18-11.18-19.76-18.2-2.97-4.57-5.14-9.87-4.95-15.08.11-3.22,1.18-6.29,2.94-8.83,3.21-4.63,8.81-7.35,14.64-7.11,2.08.09,10.98.58,19.29,7.76,4.2,3.64,8.14,7.6,11.75,11.84,3.93,4.6,7.61,9.88,8.28,15.71.31,2.75-3.46,17.64-14.58,18.8-1.32.13-6.24-.8-8.8-1.63h0Z"/>
          <path class="cls-7" d="M140.12,152.07c2.62,3.62,5.83,4.86,5.13,9.87-.49,3.5-3.71,5.89-6.72,7.75-4.54,2.82-9.23,5.41-14.03,7.75-2.2,1.08-4.51,2.12-6.95,2.18-2.77.07-5.41-1.1-7.82-2.46-3.4-1.92-6.56-4.26-9.39-6.97-3.51-3.34-7.32-7.57-12.16-7.06-4.25.44-7.41,5.37-6.02,9.41.64,1.87,2.01,3.38,3.34,4.84,6.92,7.53,14.75,15.54,24.9,16.69,3.98.45,8.01-.22,11.92-1.05,15.51-3.27,30.62-9,43.7-17.92.95-.65,1.91-1.33,2.57-2.29.77-1.11,1.04-2.5,1.22-3.84,1.35-10.09-4.17-18.85-10.68-26.69-.59-.71-.95-1.14-.95-1.14,0,0-2.52,1.57-3.16,1.91,0,0-9.39,5.58-14.95,9.02h.04Z"/>
          <path class="cls-3" d="M124.95,89.22c2.91-7.44,1.75-15.88-.76-23.46-2.51-7.58-6.32-14.69-8.79-22.28-1.66-5.09-2.71-10.37-4.37-15.46-1.64-5.03-3.86-9.87-6.61-14.38-2.78-4.55-6.24-8.91-10.98-11.4s-10.94-2.68-15.13.62c-9.68-5.85-20.09-2-29.14,4.79-8.47,6.35-13.15,15.67-15.62,25.98-1.31,5.47.55,15.54,1.46,21.09,1.53,9.41,3.05,11.62,1.97,21.09-.58,5.13-2.45,11.91-1.59,16.34,3.42-.04,5.3-4.04,7.66-6.5,1.48-1.55,5.63-2.68,5.63-2.68,0,0,.36-.24.54-.33.13-.07.31-.23.45-.32,2.6-1.44,13.31-.93,13.31-.93,0,0,1.82-1.37.49-5.51-.64-1.97-6.46-3.84-5.74-5.01,6.71-10.8,10.15-21.09,16.89-31.6,2.4-3.75,4.92-7.46,8.03-10.65,1.7-1.75,3.57-3.35,5.58-4.75,1,3.8,2.71,5.5,4.44,7.96,1.22,1.74,5.51,7.35,7.2,9.84,1.33,1.97,5.02,4.92,4.3,10.44-.8,6.11-5.25,11.43-5.34,17.59-.02,1.47-3.24,4.26-4.75,5.59-2.18,1.95-3.05,1.93-3.05,1.93,0,0-.2,2.13,1.58,3.86,2.67,2.6,6.26,3.39,6.26,3.39,0,0,.05-1.74.09-1.74.23-.07.32-.07.48-.04l4.39,1.24"/>
          <path class="cls-5" d="M82.29,61.54c1.8-.39,5.72-.13,7.42.58.53.22,1.11.67.97,1.22-.1.38-.51.58-.89.67-.76.2-1.57.18-2.35.15-2.31-.11-5.17.37-7.42-.17-.28-.06-.78-.32-.73-.6.02-.18.23-.58.39-.69,1.14-.76,1.47-.92,2.62-1.18h0Z"/>
          <path class="cls-4" d="M88.23,23.85c-4.28,3.67-8.17,6.89-11.25,12.1-.65,1.09-.75,2.41-1.25,3.57-.66,1.57-1.66,2.96-2.64,4.36-5.06,7.26-9.59,15.14-11.13,23.85-.42,2.37-.61,4.81-1.27,7.14s-1.84,4.6-3.81,6.01c1.53-2.19,1.98-4.96,2.02-7.63s-.32-5.34-.21-8.01c.29-7.93,4.46-15.14,8.66-21.89,2.69-4.32,5.46-8.64,9.01-12.3,3.21-3.31,7.5-6.59,11.87-7.17v-.02Z"/>
          <path class="cls-4" d="M75.63,4.78c-6.24-.58-17.14,5.64-22.73,10.28-5.59,4.64-10.34,11.87-11.27,19.09-.7,5.39.62,10.81,1.64,16.15,1.52,7.93,2.4,15.96,3.22,24.01,2.25-3.18,1.51-7.52.66-11.32-.72-3.26-1.43-6.52-2.15-9.78-.98-4.42-1.96-8.94-1.57-13.44.27-3.13,1.2-6.17,2.34-9.1,1-2.55,5.39-9.45,7.26-11.46,1.75-1.89,16.75-14.38,22.6-14.4v-.02Z"/>
          <path class="cls-4" d="M79.35,11.56c-2.17-.71-4.58-.4-6.68.48s-3.94,2.29-5.63,3.83c-1.96,1.78-3.78,3.76-4.96,6.12-1.62,3.23-1.96,6.98-3.43,10.28-1.35,3.05-3.65,5.66-6.5,7.37,4.79-2.6,8.41-6.99,10.94-11.81,1.86-3.56,3.22-7.44,5.81-10.5,2.5-2.96,6.08-4.97,10.45-5.75h-.01Z"/>
          <path class="cls-6" d="M50.95,84.25c-1.81-2.66-3.75-5.26-5.09-8.19-2.45-5.35-4.81-18.35-3.65-26.65.75-5.41,2.71-10.85,6.57-14.7,2.39-2.39,5.47-4.04,8.75-4.84,5.99-1.46,12.63.09,17.37,4.03,1.69,1.41,8.83,7.54,10.7,18.39.94,5.48,1.43,11.05,1.46,16.62.02,6.06-.62,12.46-4.22,17.33-1.7,2.3-15.47,11.23-25.63,4.93-1.21-.75-4.69-4.64-6.24-6.93h-.01Z"/>
          <path class="cls-7" d="M2.77,196.18c-.71-24.04,7.32-47.43,16.23-69.75,3.44-8.63,7.06-17.25,12.05-25.08,4.98-7.85,11.42-14.94,19.51-19.51,3.54-2.01,8.13-3.45,11.51-1.18,2.69,1.82,3.57,5.45,3.31,8.69-.54,6.48-4.68,12.06-9.16,16.76-4.48,4.7-9.55,9.01-12.74,14.65-2.63,4.64-3.86,9.92-4.95,15.13-3.53,16.8-6.07,33.85-11.36,50.18-1.31,4.04-2.83,8.1-5.55,11.36-2.72,3.26-6.84,5.62-11.07,5.19s-7.72-4.25-7.79-6.44Z"/>
        </g>
        <path class="cls-5" d="M93.58,44.31c-.38-.02-1.33.07-1.65.29-.36.26-.62.37-.86.73-.45.73-.09,2.04.61,2.56.48.36,1.1.44,1.69.4.72-.05,1.46-.27,1.97-.78.21-.21.38-.47.44-.76s0-.61-.06-.91c-.09-.37-.21-.73-.47-1-.33-.36-1.24-.51-1.68-.54h0Z"/>
        <path class="cls-2" d="M98.45,41.79c-.29-.36-.71-.66-1.2-.88-.5-.22-1.05-.33-1.62-.42-2.08-.33-4.24-.28-6.34-.54-.36-.04-.8-.17-.78-.43,0-.15.15-.27.32-.33s.37-.07.56-.07c.69-.02,1.37-.04,2.06-.04.64,0,1.29,0,1.91.07.72.1,1.4.32,2.04.56,1.11.42,2.22.97,3.05,2.07Z"/>
      </g>
      <path class="cls-4" d="M88.25,23.94c.75,3.8,3.06,7.19,5.39,10.28,2.5,3.32,4.98,6.62,7.48,9.94,1.11,1.48,2.26,3.05,2.56,4.88.47,2.95-1.38,5.68-2.62,8.4-1.26,2.79-2.72,7.44-2.72,10.52,0,1.58-.21,2.4.48,3.82,1.43,2.95,6.13,4.16,6.26,7.44.27-2.86-3.17-5.25-4.06-7.98-.92-2.8-.81-4.05-.02-6.89s3.5-7.52,3.98-10.43c.87-5.37-.64-11.08-4.05-15.31-2.6-3.22-6.18-5.57-8.56-8.96-.59-.83-1.1-1.74-1.82-2.45-.53-.51-1.08-1.09-1.47-1.7-.36-.58-.54-.91-.8-1.54h-.01Z"/>
      <path class="cls-4" d="M80.55,7.06c.72-2.13,3.11-3.34,5.36-3.39s4.41.81,6.49,1.68c2.74,1.14,5.51,2.3,7.87,4.1,6.4,4.86,8.77,13.32,10.11,21.25,1.13,6.6,1.82,13.26,2.12,19.94.34,8.19.11,16.66,3.24,24.24,1.18,2.83,2.8,5.5,3.43,8.5.45,2.18.37,4.42.27,6.65,1.11-2.89-.28-6.16-2.15-8.62s-4.28-4.57-5.66-7.35c-1.04-2.12-1.41-4.49-1.66-6.84-.6-5.63-.62-11.32-.06-16.96.6-5.91.64-11.04-.01-16.94-.82-7.33-3.91-16.27-9.73-20.8s-13.43-9.5-19.62-5.46h.01Z"/>
      <g>
        <path class="cls-12" d="M42.31,57.2c2.53-2.31,5.73-3.92,9.11-4.57.49-.1,1.02-.16,1.46.05s.75.81.47,1.22c-.38.37-.95-.15-1.46-.28-.44-.12-.91.07-1.32.24-1.95.84-3.91,1.69-5.85,2.55-.84.37-1.74.75-2.39.78h-.01Z"/>
        <path class="cls-12" d="M58.69,52.42c-.39-.6-.18-1.46.29-2s1.16-.84,1.82-1.14c.81-.36,1.62-.71,2.42-1.07,2.53-1.11,5.14-2.25,7.9-2.44.07.22-.2.39-.42.48-2.49.97-4.97,1.92-7.44,2.89-1.04.4-2.17.88-2.68,1.87-.13.27-.22.56-.42.78-.43.49-1.19.45-1.48.6h0Z"/>
        <path class="cls-12" d="M65.91,55.12c-.28-.32-.65-.65-1.08-.61-.37.04-.66.33-.77.69s-.06.72.04,1.08.26.69.37,1.03c.1.32.16.66.34.94s.54.49.86.39c.37-.12.49-.56.53-.94.07-.81.33-1.85-.29-2.57h.01Z"/>
        <path class="cls-12" d="M51.4,57.55l-.66-.36c-.38.59-.36,1.35-.22,2.04.13.75.36,1.47.67,2.15.04.09.09.18.16.24.18.15.48.04.6-.17s.12-.45.12-.69c-.02-.75-.12-1.49-.29-2.23-.06-.29-.15-.59-.33-.82s-.5-.39-.05-.21v.02Z"/>
        <path class="cls-12" d="M57.16,62.76c.72,2.26,1.58,4.49,2.57,6.65.62,1.38,1.33,2.84,1.08,4.33-.12.71-.45,1.41-.36,2.12.11.76.76,1.41,1.52,1.51.26.04.53,0,.73-.16s.28-.48.12-.67c-.23-.29-.72-.13-1.08-.26-.4-.15-.58-.66-.51-1.09s.28-.82.39-1.24c.26-.93,0-1.92-.31-2.84-.94-2.79-2.35-5.44-4.16-8.35h0Z"/>
      </g>
      <g>
        <path class="cls-12" d="M70.33,145.38c-3.2.15-6.22,1.2-8.63,3-.34.26-.7.56-.8.99s.18,1.02.65,1.1c.49-.01.43-.72.62-1.14.16-.37.56-.55.94-.71,1.75-.73,3.5-1.46,5.25-2.19.76-.32,1.54-.65,1.96-1.07h0Z"/>
        <path class="cls-12" d="M56.95,153.37c-.66-.21-1.46.15-1.9.66s-.62,1.16-.78,1.79c-.21.76-.4,1.53-.61,2.29-.64,2.39-1.27,4.84-.97,7.22.23.01.36-.24.39-.45.49-2.31.99-4.63,1.48-6.93.21-.97.48-2.03,1.36-2.67.23-.17.51-.31.7-.53.39-.47.23-1.1.32-1.38h.01Z"/>
        <path class="cls-12" d="M60.1,162.28c-.22-.34-.4-.76-.24-1.09.13-.28.51-.42.87-.39s.7.21.99.42c.29.21.56.45.84.66.27.2.56.37.77.61s.29.61.1.83c-.22.26-.67.21-1.04.1-.78-.22-1.84-.38-2.31-1.15h.02Z"/>
        <path class="cls-12" d="M66.83,151.34c-.05-.22-.09-.44-.13-.66.67-.1,1.37.2,1.98.54.65.37,1.26.81,1.81,1.31.07.06.15.13.18.22.07.2-.11.4-.34.43s-.45-.06-.67-.15c-.69-.28-1.36-.62-2-1.02-.24-.16-.5-.32-.66-.55-.16-.23-.21-.54-.17-.11h0Z"/>
        <path class="cls-12" d="M69.93,157.85c1.9,1.38,3.71,2.86,5.44,4.43,1.1.99,2.25,2.08,3.73,2.41.7.16,1.44.12,2.08.47.67.36,1.08,1.11.94,1.76-.05.22-.16.43-.37.54s-.54.06-.67-.13c-.21-.29.1-.62.09-.97,0-.38-.44-.7-.86-.8s-.86-.06-1.29-.12c-.95-.12-1.8-.69-2.56-1.26-2.33-1.75-4.36-3.83-6.54-6.33h0Z"/>
      </g>
      <path class="cls-4" d="M89.33,17.39c.42-1.75,1.76-2.75,3.05-2.79s2.51.67,3.68,1.37c1.55.93,3.13,1.9,4.48,3.37,3.64,4,4.98,10.97,5.74,17.49.64,5.42,1.04,10.91,1.2,16.42.2,6.75.06,13.71,1.85,19.94.66,2.33,1.59,4.53,1.95,6.99.26,1.79.21,3.64.15,5.47.64-2.37-.16-5.07-1.22-7.09s-2.44-3.76-3.21-6.04c-.59-1.74-.8-3.7-.94-5.63-.34-4.63-.36-9.32-.04-13.94.34-4.86.37-9.08,0-13.94-.47-6.04-2.23-13.39-5.53-17.13s-7.64-7.82-11.15-4.49h0Z"/>
    </g>
  </g>
</svg>